<?xml version="1.0" standalone="no"?>
<!DOCTYPE svg PUBLIC "-//W3C//DTD SVG 1.1//EN" "http://www.w3.org/Graphics/SVG/1.1/DTD/svg11.dtd" >
<svg xmlns="http://www.w3.org/2000/svg">
<metadata>
This is a custom SVG webfont generated by Font Squirrel.
Copyright   : Copyright  1989 1995 2001 Adobe Systems Incorporated  All Rights Reserved
Designer    : Gerry Barney David Bristow Kit Cooper Terence Griffin Ian Hay
Foundry URL : httpwwwadobecomtype
</metadata>
<defs>
<font id="VAGRoundedStdLight" horiz-adv-x="417" >
<font-face units-per-em="2048" ascent="1577" descent="-471" />
<missing-glyph horiz-adv-x="512" />
<glyph unicode=" "  horiz-adv-x="512" />
<glyph unicode="&#x09;" horiz-adv-x="512" />
<glyph unicode="&#xa0;" horiz-adv-x="512" />
<glyph unicode="!" horiz-adv-x="606" d="M199 92q0 43 30.5 74t73.5 31t74 -31t31 -74t-31 -73.5t-74 -30.5t-73.5 30.5t-30.5 73.5zM213 487v887q0 45 24.5 70.5t65.5 25.5t65.5 -25.5t24.5 -70.5v-887q0 -45 -24.5 -70.5t-65.5 -25.5t-65.5 25.5t-24.5 70.5z" />
<glyph unicode="&#x22;" horiz-adv-x="684" d="M113 1104v278q0 88 84 88t84 -88v-278q0 -88 -84 -88t-84 88zM403 1104v278q0 88 84 88t84 -88v-278q0 -88 -84 -88t-84 88z" />
<glyph unicode="#" horiz-adv-x="1097" d="M29 510q0 68 84 68h143l43 303h-125q-84 0 -84 67.5t84 67.5h143l54 381q10 74 78 73q70 0 69 -69q0 -20 -10 -86l-41 -299h244l53 381q10 74 78 73q70 0 69 -69q0 -20 -10 -86l-41 -299h125q84 0 84 -67.5t-84 -67.5h-143l-43 -303h125q84 0 84 -68t-84 -68h-144 l-53 -381q-10 -74 -78 -73q-70 0 -69 69q0 20 10 86l41 299h-244l-53 -381q-10 -74 -78 -73q-70 0 -70 69q0 20 11 86l41 299h-125q-84 0 -84 68zM406 578h243l43 303h-243z" />
<glyph unicode="$" horiz-adv-x="985" d="M43 170q0 35 19.5 60.5t52.5 25.5q29 0 75 -27.5t111.5 -56.5t144.5 -29v568q-57 18 -81.5 27.5t-75.5 31t-76 38.5t-60.5 48t-52 62.5t-30 77.5t-13.5 100q0 131 107.5 244.5t281.5 129.5v97q0 43 43 43t43 -43v-97q127 -10 220.5 -58t93.5 -112q0 -33 -22.5 -56 t-55.5 -23t-97.5 42t-138.5 52v-449l85 -29q26 -9 79.5 -34t79 -43.5t63.5 -51t56 -68.5t32.5 -85t14.5 -106q0 -172 -109.5 -300.5t-300.5 -152.5v-105q0 -43 -43 -43t-43 43v97q-154 0 -278.5 57t-124.5 125zM250 1108q0 -78 50 -125t146 -84v416q-88 -10 -142 -66.5 t-54 -140.5zM532 154q102 20 160 98t58 188q0 92 -56.5 146.5t-161.5 93.5v-526z" />
<glyph unicode="%" horiz-adv-x="1517" d="M86 1124.5q0 145.5 82 245.5t229.5 100t229.5 -100t82 -245.5t-82 -246t-229.5 -100.5t-229.5 100.5t-82 246zM221 1124.5q0 -94.5 43 -165t133 -70.5t133 70.5t43 165t-43 165t-133 70.5t-133 -70.5t-43 -165zM399 26.5q0 22.5 29 92.5l545 1306q27 61 71 62 q35 0 53.5 -17.5t18.5 -37.5q0 -18 -29 -93l-544 -1306q-27 -61 -76 -62q-31 0 -49.5 16.5t-18.5 39zM809 333.5q0 145.5 82 246t229.5 100.5t229.5 -100.5t82 -246t-82 -245.5t-229.5 -100t-229.5 100t-82 245.5zM944 334q0 -94 43 -165t133 -71t133 71t43 165t-43 164.5 t-133 70.5t-133 -70.5t-43 -164.5z" />
<glyph unicode="&#x26;" horiz-adv-x="1366" d="M74 412q0 172 76.5 272t248.5 205q-162 166 -161 285q0 152 98 224t258 72q131 0 225 -73.5t94 -184.5q0 -127 -70.5 -208.5t-191.5 -149.5l326 -385l12 16q31 43 76 117t72.5 105.5t54.5 31.5q33 0 54.5 -16t21.5 -45q0 -100 -191 -328l178 -211q37 -43 37 -78 q0 -33 -21.5 -53t-51.5 -20q-43 0 -70 32l-176 203q-186 -236 -451 -235q-186 0 -317 114.5t-131 309.5zM254 432q0 -121 73.5 -198.5t211.5 -77.5q94 0 171.5 42t161.5 144l-372 430q-137 -78 -191.5 -157t-54.5 -183zM418 1178q0 -29 21.5 -68t43.5 -64l70 -79 q193 111 192 215q0 70 -49 107.5t-116 37.5q-70 0 -116 -38.5t-46 -110.5z" />
<glyph unicode="'" d="M125 1104v278q0 88 84 88t84 -88v-278q0 -88 -84 -88t-84 88z" />
<glyph unicode="(" horiz-adv-x="493" d="M133 651.5q0 448.5 119 763.5q35 92 90 92q35 0 53.5 -17t18.5 -42q0 -18 -29 -109q-84 -264 -84 -688t84 -688q29 -90 29 -108q0 -25 -18.5 -42.5t-53.5 -17.5q-55 0 -90 92q-119 316 -119 764.5z" />
<glyph unicode=")" horiz-adv-x="493" d="M80 -145q0 18 29 108q84 264 84 688t-84 688q-29 90 -29 109q0 25 18.5 42t53.5 17q55 0 90 -92q119 -315 118.5 -763.5t-118.5 -764.5q-35 -92 -90 -92q-35 0 -53.5 17.5t-18.5 42.5z" />
<glyph unicode="*" horiz-adv-x="798" d="M78 967q0 45 47 65l182 76l-182 76q-47 20 -47 65q0 29 20.5 49.5t51.5 20.5q23 0 52 -18.5t75.5 -57.5t70.5 -57q0 39 -11 113.5t-11 99.5q0 31 19.5 51t54 20t54 -20t19.5 -51q0 -25 -11 -99.5t-11 -113.5q25 18 70.5 57t75.5 57.5t52 18.5q31 0 51.5 -20.5t20.5 -49.5 q0 -45 -47 -65l-182 -76l182 -76q47 -20 47 -65q0 -29 -20.5 -49.5t-51.5 -20.5q-23 0 -52.5 18.5t-75.5 57.5t-70 57q0 -39 11 -113.5t11 -99.5q0 -31 -19.5 -51.5t-54 -20.5t-54 20.5t-19.5 51.5q0 25 11 99.5t11 113.5q-25 -18 -71 -57t-75.5 -57.5t-51.5 -18.5 q-31 0 -51.5 20.5t-20.5 49.5z" />
<glyph unicode="+" horiz-adv-x="1228" d="M96 518q0 84 88 84h346v346q0 88 84 88t84 -88v-346h346q88 0 88.5 -84t-88.5 -84h-346v-346q0 -88 -84 -88t-84 88v346h-346q-88 0 -88 84z" />
<glyph unicode="," horiz-adv-x="512" d="M45 -180q0 31 23 76l114 225q39 76 97 76q33 0 57 -22.5t24 -55.5q0 -31 -22 -76l-115 -225q-39 -76 -96 -76q-33 0 -57.5 22.5t-24.5 55.5z" />
<glyph unicode="-" horiz-adv-x="720" d="M72 549q0 33 22.5 55.5t55.5 22.5h421q33 0 55.5 -22.5t22.5 -55.5t-22.5 -55.5t-55.5 -22.5h-421q-33 0 -55.5 22.5t-22.5 55.5z" />
<glyph unicode="." horiz-adv-x="512" d="M152 92q0 43 30.5 74t73.5 31t73.5 -31t30.5 -74t-30.5 -73.5t-73.5 -30.5t-73.5 30.5t-30.5 73.5z" />
<glyph unicode="/" horiz-adv-x="833" d="M41 63q0 27 29 91l559 1255q27 61 84 61q35 0 57.5 -20t22.5 -55q0 -27 -29 -90l-559 -1256q-27 -61 -84 -61q-35 0 -57.5 20t-22.5 55z" />
<glyph unicode="0" horiz-adv-x="1097" d="M68 729q0 342 137 541.5t344 199.5t344 -199.5t137 -541.5t-137 -541.5t-344 -199.5t-344 199.5t-137 541.5zM260 729q0 -291 81 -438.5t208 -147.5t208 147.5t81 438.5t-81 438.5t-208 147.5t-208 -147.5t-81 -438.5z" />
<glyph unicode="1" horiz-adv-x="720" d="M70 1380.5q0 32.5 22.5 55t54.5 22.5h314q31 0 43 -9t12 -40v-1325q0 -45 -24.5 -70.5t-65.5 -25.5t-65.5 25.5t-24.5 70.5v1219h-189q-33 0 -55 22.5t-22 55z" />
<glyph unicode="2" horiz-adv-x="1097" d="M104 1014q0 190 124 323t341 133q174 0 284 -107.5t110 -254.5q0 -170 -101 -301l-489 -651h553q33 0 55.5 -22.5t22.5 -55.5t-23 -55.5t-55 -22.5h-707q-51 0 -74.5 22.5t-23.5 51.5q0 27 39 82l504 673q106 139 106 258q0 98 -66.5 163t-164.5 65q-125 0 -196 -93.5 t-71 -236.5q0 -82 -79 -82q-89 0 -89 111z" />
<glyph unicode="3" horiz-adv-x="1097" d="M84 324q0 47 21.5 73.5t54.5 26.5q70 0 100 -94q61 -186 246 -187q121 0 198.5 78t77.5 193q0 272 -254 272q-111 0 -110 78q0 57 94 78q109 25 157 80t48 155q0 104 -57.5 171t-149.5 67q-186 0 -207 -213q-6 -84 -86 -84q-37 0 -59.5 23.5t-22.5 60.5q0 154 104.5 261 t278.5 107q170 0 274.5 -109.5t104.5 -266.5q0 -94 -44 -176t-128 -134q121 -37 185.5 -132t64.5 -222q0 -203 -132 -322.5t-333 -119.5q-106 0 -193.5 36.5t-135.5 91t-72.5 109t-24.5 99.5z" />
<glyph unicode="4" horiz-adv-x="1097" d="M25 438q0 31 45 105l516 846q49 82 141 81q137 0 137 -149v-791h92q33 0 55.5 -22.5t22.5 -55t-22.5 -55t-55.5 -22.5h-92v-291q0 -45 -24.5 -70.5t-65.5 -25.5t-65.5 25.5t-24.5 70.5v291h-582q-77 0 -77 63zM250 530h434v748h-4z" />
<glyph unicode="5" horiz-adv-x="1097" d="M90 229q0 31 17.5 54.5t48.5 23.5q27 0 71.5 -38t114.5 -75.5t160 -37.5q127 0 202.5 91t75.5 224q0 137 -63.5 223t-188.5 86q-78 0 -155.5 -27.5t-91.5 -27.5q-61 0 -62 55q0 16 14 121l76 510q8 47 68 47h506q33 0 55.5 -22.5t22.5 -55t-23 -55t-55 -22.5h-416 l-59 -396q80 41 192 41q164 0 268.5 -132t104.5 -310q0 -238 -127 -378t-346 -140q-168 0 -289 82.5t-121 158.5z" />
<glyph unicode="6" horiz-adv-x="1097" d="M106 489q0 152 46.5 298.5t126 265t160.5 209t175 168.5q49 41 84 40q25 0 49.5 -22.5t24.5 -61.5q0 -33 -72 -96q-94 -84 -164.5 -173t-148.5 -232h4q111 57 232 57q170 0 269 -139t99 -340t-127 -338t-319 -137q-190 0 -314.5 142t-124.5 359zM287 471 q0 -137 64.5 -226t191.5 -89t191.5 89t64.5 226q0 315 -256 315q-127 0 -191.5 -90t-64.5 -225z" />
<glyph unicode="7" horiz-adv-x="1024" d="M57 1380.5q0 32.5 22.5 55t55.5 22.5h739q92 0 93 -57q0 -29 -35 -109l-545 -1239q-29 -66 -108 -65q-23 0 -45.5 18.5t-22.5 50.5q0 29 29 97l510 1144v5h-615q-33 0 -55.5 22.5t-22.5 55z" />
<glyph unicode="8" horiz-adv-x="1097" d="M102 449q0 133 71 234t194 130q-100 63 -145.5 136t-45.5 188q0 158 111.5 245.5t261 87.5t261.5 -88t112 -245q0 -115 -45.5 -187.5t-145.5 -136.5q123 -29 193.5 -130t70.5 -234q0 -188 -120.5 -324.5t-325.5 -136.5t-326 136.5t-121 324.5zM295 440q0 -135 73.5 -216 t180 -81t180.5 81t74 216q0 121 -67.5 206t-186.5 85t-186.5 -85t-67.5 -206zM344 1102q0 -96 55.5 -155.5t149.5 -59.5t149.5 59.5t55.5 155.5q0 94 -55.5 153.5t-149.5 59.5t-149.5 -59.5t-55.5 -153.5z" />
<glyph unicode="9" horiz-adv-x="1097" d="M106 995.5q0 200.5 127 337.5t320 137q190 0 314 -142t124 -359q0 -152 -46 -298.5t-126 -265t-160.5 -209t-175.5 -167.5q-49 -41 -84 -41q-25 0 -49 22.5t-24 61.5q0 33 71 96q94 84 165 173t149 232h-4q-111 -57 -232 -57q-170 0 -269.5 139.5t-99.5 340zM299 987 q0 -315 256 -315q127 0 191.5 90t64.5 225q0 137 -64.5 226.5t-191.5 89.5t-191.5 -89.5t-64.5 -226.5z" />
<glyph unicode=":" horiz-adv-x="512" d="M152 92q0 43 30.5 74t73.5 31t73.5 -31t30.5 -74t-30.5 -73.5t-73.5 -30.5t-73.5 30.5t-30.5 73.5zM152 780q0 43 30.5 74t73.5 31t73.5 -31t30.5 -74t-30.5 -73.5t-73.5 -30.5t-73.5 30.5t-30.5 73.5z" />
<glyph unicode=";" horiz-adv-x="512" d="M45 -180q0 31 23 76l114 225q39 76 97 76q33 0 57 -22.5t24 -55.5q0 -31 -22 -76l-115 -225q-39 -76 -96 -76q-33 0 -57.5 22.5t-24.5 55.5zM152 780q0 43 30.5 74t73.5 31t73.5 -31t30.5 -74t-30.5 -73.5t-73.5 -30.5t-73.5 30.5t-30.5 73.5z" />
<glyph unicode="&#x3c;" horiz-adv-x="1228" d="M94 518q0 57 74 94l799 400q78 37 100 37q27 0 47.5 -22.5t20.5 -53.5q0 -43 -66 -78l-762 -377l762 -377q66 -35 66 -78q0 -31 -20.5 -53t-47.5 -22q-23 0 -100 37l-799 399q-74 37 -74 94z" />
<glyph unicode="=" horiz-adv-x="1228" d="M96 305q0 84 88 84h860q88 0 88.5 -84t-88.5 -84h-860q-88 0 -88 84zM96 731q0 84 88 84h860q88 0 88.5 -84t-88.5 -84h-860q-88 0 -88 84z" />
<glyph unicode="&#x3e;" horiz-adv-x="1228" d="M94 63q0 43 66 78l762 377l-762 377q-66 35 -66 78q0 31 20.5 53.5t47.5 22.5q23 0 100 -37l799 -400q74 -37 74 -94t-74 -94l-799 -399q-78 -37 -100 -37q-27 0 -47.5 22t-20.5 53z" />
<glyph unicode="?" horiz-adv-x="909" d="M165 1381q122 89 271 89q186 0 311 -107.5t125 -269t-93 -265t-251 -136.5v-205q0 -45 -24.5 -70.5t-65.5 -25.5t-65.5 25.5t-24.5 70.5v232q0 72 20.5 94.5t123.5 42.5q188 39 188 221q0 102 -66.5 164t-171.5 62q-178 0 -237 -168q-23 -68 -80 -68q-37 0 -64 27 q-25 25 -24 61q0 132 128 226zM334 92q0 43 30.5 74t73.5 31t74 -31t31 -74t-31 -73.5t-74 -30.5t-73.5 30.5t-30.5 73.5z" />
<glyph unicode="@" horiz-adv-x="1638" d="M74 729q0 309 227 525t547 216q297 0 507 -172t210 -438q0 -141 -53.5 -256t-133.5 -179.5t-163.5 -99t-157.5 -34.5q-123 0 -144 117h-4q-104 -117 -235 -117t-220 94t-89 227q0 205 132 368t330 163q166 0 240 -154l27 82q18 59 82 59q66 0 65 -45q0 -16 -16 -73 l-127 -439q-16 -57 -17 -84q0 -59 58 -59q100 0 185 125t85 281q0 229 -165 364t-396 135q-264 0 -441.5 -175t-177.5 -431q0 -266 181.5 -436t455.5 -170q119 0 214.5 35t144.5 78t99 77.5t85 34.5q23 0 37 -13t14 -34q0 -55 -94 -130t-239.5 -129t-274.5 -54 q-326 0 -552 215t-226 526zM545 631q0 -80 49 -132.5t119 -52.5q72 0 128 44.5t88 110t47 129t15 110.5q0 147 -153 147q-137 0 -215 -112.5t-78 -243.5z" />
<glyph unicode="A" horiz-adv-x="1253" d="M20 63q0 16 25 91l453 1206q39 111 129 110.5t129 -110.5l452 -1206q25 -74 25 -91q0 -35 -24.5 -55t-61.5 -20q-63 0 -88 67l-94 262h-676l-94 -262q-25 -68 -89 -67q-37 0 -61.5 20t-24.5 55zM344 473h565l-280 789h-4z" />
<glyph unicode="B" horiz-adv-x="1099" d="M119 98v1262q0 98 96 98h317q182 0 288 -106.5t106 -241.5q0 -119 -56.5 -205t-146.5 -114v-5q133 -14 224 -115.5t91 -244.5q0 -180 -128 -303t-349 -123h-346q-96 0 -96 98zM299 156h254q133 0 219 74.5t86 195.5q0 117 -80 192.5t-217 75.5h-262v-538zM299 842h205 q113 0 177 66.5t64 169t-59 164t-176 61.5h-211v-461z" />
<glyph unicode="C" horiz-adv-x="1214" d="M63 729q0 145 42 276.5t120 236t205 166.5t283 62q176 0 299 -73.5t123 -139.5q0 -37 -20.5 -61.5t-53.5 -24.5q-31 0 -72 36t-109.5 72t-166.5 36q-117 0 -207 -51.5t-143.5 -137.5t-80 -187t-26.5 -210q0 -233 115.5 -409.5t330.5 -176.5q96 0 177.5 33t134.5 65.5 t80 32.5q33 0 52 -22.5t19 -61.5q0 -72 -139 -137t-324 -65q-203 0 -351 107.5t-218 273t-70 360.5z" />
<glyph unicode="D" horiz-adv-x="1290" d="M129 1360q0 98 96 98h355q209 0 358 -101.5t219 -261t70 -358.5q0 -332 -167 -534.5t-456 -202.5h-379q-96 0 -96 98v1262zM309 1303v-1147h258q123 0 216.5 48t146.5 132t78.5 184.5t25.5 216.5q0 246 -118.5 406t-360.5 160h-246z" />
<glyph unicode="E" horiz-adv-x="909" d="M119 98v1262q0 98 96 98h518q88 0 88 -84t-88 -84h-434v-477h395q88 0 88 -84t-88 -84h-395v-477h434q88 0 88 -84t-88 -84h-518q-96 0 -96 98z" />
<glyph unicode="F" horiz-adv-x="833" d="M119 84v1276q0 98 96 98h512q88 0 88 -84t-88 -84h-428v-477h379q88 0 88 -84t-88 -84h-379v-561q0 -45 -24.5 -70.5t-65.5 -25.5t-65.5 25.5t-24.5 70.5z" />
<glyph unicode="G" horiz-adv-x="1366" d="M63 729q0 197 69 360.5t223.5 272t373.5 108.5q205 0 352.5 -81.5t147.5 -151.5q0 -37 -24.5 -61.5t-61.5 -24.5q-29 0 -69 25.5t-80 56.5t-113.5 56.5t-163.5 25.5q-119 0 -210 -51.5t-144.5 -137.5t-80 -187t-26.5 -210q0 -111 26.5 -210t80 -186t146.5 -138.5 t216 -51.5q197 0 308.5 136.5t111.5 302.5v86h-254q-88 0 -88 84t88 84h303q72 0 101.5 -33t29.5 -115q0 -143 -28.5 -260t-95 -220.5t-193.5 -161.5t-306 -58q-152 0 -275.5 62.5t-201.5 167t-120 236.5t-42 275z" />
<glyph unicode="H" horiz-adv-x="1366" d="M119 96v1266q0 109 90 108.5t90 -108.5v-553h768v553q0 109 90 108.5t90 -108.5v-1266q0 -109 -90 -108.5t-90 108.5v557h-768v-557q0 -109 -90 -109t-90 109z" />
<glyph unicode="I" d="M119 84v1290q0 45 24.5 70.5t65.5 25.5t65.5 -25.5t24.5 -70.5v-1290q0 -45 -24.5 -70.5t-65.5 -25.5t-65.5 25.5t-24.5 70.5z" />
<glyph unicode="J" horiz-adv-x="757" d="M-14 152q0 35 19.5 55t52 20t94 -42t147.5 -42q160 0 160 209v1022q0 45 24.5 70.5t65.5 25.5t65.5 -25.5t24.5 -70.5v-1003q0 -383 -354 -383q-90 0 -194.5 46t-104.5 118z" />
<glyph unicode="K" horiz-adv-x="1175" d="M119 84v1290q0 45 24.5 70.5t65.5 25.5t65.5 -25.5t24.5 -70.5v-532l625 571q61 57 98 57q35 0 56.5 -21.5t21.5 -55.5q0 -49 -37 -82l-598 -539l653 -631q37 -35 37 -73q0 -33 -25.5 -56.5t-62.5 -23.5q-47 0 -88 39l-680 667v-610q0 -45 -24.5 -70.5t-65.5 -25.5 t-65.5 25.5t-24.5 70.5z" />
<glyph unicode="L" horiz-adv-x="796" d="M119 98v1276q0 45 24.5 70.5t65.5 25.5t65.5 -25.5t24.5 -70.5v-1206h385q88 0 88 -84t-88 -84h-469q-96 0 -96 98z" />
<glyph unicode="M" horiz-adv-x="1708" d="M59 80q0 25 11 82l198 1171q25 137 142 137q102 0 131 -94l311 -1067h4l311 1067q29 94 131 94q117 0 142 -137l198 -1171q10 -57 11 -82q0 -92 -84 -92q-86 0 -97 78l-170 1171h-4l-348 -1176q-23 -74 -92.5 -73.5t-91.5 73.5l-348 1176h-4l-170 -1171q-10 -78 -97 -78 q-84 0 -84 92z" />
<glyph unicode="N" horiz-adv-x="1368" d="M119 84v1280q0 106 82 106q39 0 63.5 -19t63.5 -75l737 -1059h4v1057q0 45 24.5 70.5t65.5 25.5t65.5 -25.5t24.5 -70.5v-1280q0 -106 -82 -106q-39 0 -63.5 19.5t-63.5 74.5l-737 1059h-4v-1057q0 -45 -24.5 -70.5t-65.5 -25.5t-65.5 25.5t-24.5 70.5z" />
<glyph unicode="O" horiz-adv-x="1404" d="M63 729.5q0 194.5 71 360t220.5 273t348 107.5t348 -107.5t220 -273t70.5 -360t-70.5 -360.5t-220 -273.5t-348 -107.5t-348 107.5t-220.5 273.5t-71 360.5zM256 729.5q0 -149.5 41 -276.5t145.5 -218.5t260 -91.5t260 91.5t145.5 218.5t41 276.5t-41 276.5t-145.5 218 t-260 91t-260 -91t-145.5 -218t-41 -276.5z" />
<glyph unicode="P" horiz-adv-x="1062" d="M119 84v1276q0 98 96 98h356q215 0 344 -131t129 -328q0 -190 -134 -322t-332 -132h-279v-461q0 -45 -24.5 -70.5t-65.5 -25.5t-65.5 25.5t-24.5 70.5zM299 1303v-603h266q131 0 215 86t84 213q0 123 -75.5 213.5t-231.5 90.5h-258z" />
<glyph unicode="Q" horiz-adv-x="1402" d="M63 729.5q0 194.5 71 360t220.5 273t348 107.5t348 -107.5t220 -273t70.5 -360.5q0 -262 -127 -461l152 -149q35 -35 35 -72q0 -31 -21.5 -53.5t-56.5 -22.5q-37 0 -70 33l-143 141q-164 -158 -408 -157q-199 0 -348 107.5t-220 273.5t-71 360.5zM256 729.5 q0 -149.5 41 -276.5t145.5 -218.5t259.5 -91.5q178 0 291 117l-121 119q-37 37 -36 67q0 35 22.5 58.5t57 23.5t67.5 -32l100 -99q66 143 66 332q0 150 -41 277t-145.5 218t-260 91t-260 -91t-145.5 -218t-41 -276.5z" />
<glyph unicode="R" horiz-adv-x="1062" d="M119 84v1276q0 98 96 98h334q180 0 313 -110.5t133 -282.5q0 -209 -109.5 -308.5t-287.5 -105.5l-78 -2l465 -510q35 -37 35 -82q0 -29 -23.5 -49t-58.5 -20q-45 0 -82 41l-557 610v-555q0 -45 -24.5 -70.5t-65.5 -25.5t-65.5 25.5t-24.5 70.5zM299 784h246 q141 0 205.5 63.5t64.5 205.5q0 104 -75.5 177t-198.5 73h-242v-519z" />
<glyph unicode="S" horiz-adv-x="985" d="M43 164q0 39 19.5 65.5t56.5 26.5q23 0 67.5 -27.5t114.5 -56.5t150 -29q135 0 217 86t82 211q0 80 -51.5 135.5t-128 82t-167 61.5t-167 71.5t-128 114.5t-51.5 191q0 139 120 256.5t310 117.5q139 0 249 -50t110 -120q0 -33 -22.5 -56t-55.5 -23q-31 0 -65.5 23.5 t-89 47t-132.5 23.5q-100 0 -165.5 -57.5t-65.5 -149.5q0 -66 38 -112t99.5 -74.5t135 -53t147 -56.5t135 -74t99.5 -115.5t38 -173.5q0 -190 -133 -325.5t-360 -135.5q-152 0 -279 51t-127 125z" />
<glyph unicode="T" horiz-adv-x="909" d="M4 1374q0 84 88 84h725q88 0 88 -84t-88 -84h-272v-1206q0 -45 -24.5 -70.5t-65.5 -25.5t-65.5 25.5t-24.5 70.5v1206h-273q-88 0 -88 84z" />
<glyph unicode="U" horiz-adv-x="1368" d="M119 578v796q0 45 24.5 70.5t65.5 25.5t65.5 -25.5t24.5 -70.5v-866q0 -170 105.5 -267.5t279.5 -97.5t279.5 97.5t105.5 267.5v866q0 45 24.5 70.5t65.5 25.5t65.5 -25.5t24.5 -70.5v-796q0 -141 -35.5 -250t-91 -171.5t-132.5 -102.5t-150.5 -53t-155.5 -13t-155.5 13 t-150.5 53t-132.5 102.5t-91 171.5t-35.5 250z" />
<glyph unicode="V" horiz-adv-x="1138" d="M8 1397q0 29 22.5 51t57.5 22q33 0 56.5 -18t30.5 -37l24 -61l368 -1063h4l369 1063l24 61q7 18 30.5 36.5t56.5 18.5q35 0 57 -22.5t22 -50.5q0 -33 -12 -70l-444 -1241q-16 -51 -39 -74.5t-66 -23.5t-65.5 23.5t-38.5 74.5l-445 1241q-12 37 -12 70z" />
<glyph unicode="W" horiz-adv-x="1708" d="M51 1389q0 35 22.5 58t59.5 23q84 0 98 -84l191 -1165h4l336 1178q20 72 92 71.5t92 -71.5l336 -1178h4l191 1165q14 84 98 84q37 0 59.5 -23.5t22.5 -57.5q0 -39 -10 -93l-222 -1190q-23 -119 -129 -118q-57 0 -88.5 23.5t-52.5 94.5l-299 1070h-4l-299 -1070 q-20 -72 -52 -95t-89 -23q-106 0 -129 118l-222 1190q-10 54 -10 93z" />
<glyph unicode="X" horiz-adv-x="1216" d="M18 63.5q0 30.5 29 73.5l457 645l-381 539q-29 41 -29 73.5t23.5 54t56.5 21.5q51 0 92 -57l342 -500l342 500q41 57 92 57q33 0 56.5 -21.5t23.5 -54t-28 -73.5l-381 -539l456 -645q29 -43 29 -73.5t-25.5 -53t-56.5 -22.5q-49 0 -90 57l-418 596l-418 -596 q-41 -57 -90 -57q-31 0 -56.5 22.5t-25.5 53z" />
<glyph unicode="Y" horiz-adv-x="1024" d="M2 1397q0 33 23.5 53t58.5 20q55 0 90 -57l338 -551l338 551q35 57 90 57q35 0 58.5 -20t23.5 -53q0 -31 -29 -76l-391 -637v-600q0 -45 -24.5 -70.5t-65.5 -25.5t-65.5 25.5t-24.5 70.5v600l-391 637q-29 45 -29 76z" />
<glyph unicode="Z" horiz-adv-x="1138" d="M49 82q0 45 35 96l750 1125h-662q-39 0 -63.5 20t-24.5 57t24.5 57.5t63.5 20.5h797q43 0 68.5 -18.5t25.5 -44.5q0 -49 -45 -115l-752 -1124h735q39 0 64 -20.5t25 -57.5t-25 -57.5t-64 -20.5h-845q-107 0 -107 82z" />
<glyph unicode="[" horiz-adv-x="493" d="M156 -70v1442q0 98 96 98h141q33 0 55.5 -22.5t22.5 -55t-22.5 -55t-55.5 -22.5h-69v-1327h69q33 0 55.5 -22.5t22.5 -55.5t-22.5 -55.5t-55.5 -22.5h-141q-96 0 -96 98z" />
<glyph unicode="\" horiz-adv-x="833" d="M41 1395q0 35 22.5 55t57.5 20q57 0 84 -61l559 -1255q29 -63 29 -91q0 -35 -22.5 -55t-57.5 -20q-57 0 -84 61l-559 1256q-29 63 -29 90z" />
<glyph unicode="]" horiz-adv-x="493" d="M23 -90q0 33 22.5 55.5t54.5 22.5h70v1327h-70q-33 0 -55 22.5t-22 55t22.5 55t54.5 22.5h142q96 0 96 -98v-1442q0 -98 -96 -98h-142q-33 0 -55 22.5t-22 55.5z" />
<glyph unicode="^" horiz-adv-x="1228" d="M115 659q0 23 35 89l358 638q47 84 106.5 84t106.5 -84l358 -638q35 -66 35 -89q0 -29 -21.5 -48t-54 -19t-50 20.5t-52.5 81.5l-322 596l-321 -596q-25 -45 -35 -60.5t-27.5 -28.5t-40.5 -13q-33 0 -54 19t-21 48z" />
<glyph unicode="_" horiz-adv-x="1024" d="M-59 -205q0 51 59 51h1024q59 0 59 -51t-59 -51h-1024q-59 0 -59 51z" />
<glyph unicode="`" d="M-18 1434q0 29 20.5 57.5t56.5 28.5q25 0 70 -19l236 -96q72 -29 71 -76q0 -29 -20.5 -57.5t-57.5 -28.5q-25 0 -69 19l-236 96q-71 29 -71 76z" />
<glyph unicode="a" horiz-adv-x="1138" d="M72 544.5q0 229.5 129 393.5t350 164q164 0 297 -146h4v58q0 43 25.5 65.5t58.5 22.5q31 0 57.5 -22.5t26.5 -65.5v-938q0 -43 -26.5 -65.5t-57.5 -22.5q-33 0 -58.5 22.5t-25.5 65.5v76h-4q-115 -164 -297 -164q-221 0 -350 163.5t-129 393zM252 545q0 -160 73.5 -281 t225 -121t225.5 121t74 281t-74 280.5t-225.5 120.5t-225 -120.5t-73.5 -280.5z" />
<glyph unicode="b" horiz-adv-x="1138" d="M127 1485q0 45 24.5 70.5t65.5 25.5t65.5 -25.5t24.5 -70.5v-531h4q41 59 117 103.5t174 44.5q213 0 339 -164t126 -393.5t-126 -393t-339 -163.5t-291 149h-4v-53q0 -45 -24.5 -70.5t-65.5 -25.5t-65.5 25.5t-24.5 70.5v1401zM289 545q0 -160 73.5 -281t225 -121 t225.5 121t74 281t-74 280.5t-225.5 120.5t-225 -120.5t-73.5 -280.5z" />
<glyph unicode="c" horiz-adv-x="909" d="M72 544.5q0 233.5 128 395.5t363 162q133 0 213 -40t80 -97q0 -29 -21.5 -52.5t-52.5 -23.5q-29 0 -90 28.5t-129 28.5q-154 0 -232.5 -122t-78.5 -279.5t79 -279.5t232 -122q72 0 134.5 31t82.5 31q70 0 70 -76q0 -55 -78 -98t-209 -43q-236 0 -363.5 161.5t-127.5 395z " />
<glyph unicode="d" horiz-adv-x="1138" d="M72 544.5q0 229.5 126 393.5t339 164q98 0 173.5 -44t116.5 -104h4v531q0 45 25 70.5t66 25.5t65.5 -25.5t24.5 -70.5v-1401q0 -45 -24.5 -70.5t-65.5 -25.5t-66 25.5t-25 70.5v53h-4q-78 -150 -290.5 -149.5t-338.5 164t-126 393zM252 545q0 -160 73.5 -281t225 -121 t225.5 121t74 281t-74 280.5t-225.5 120.5t-225 -120.5t-73.5 -280.5z" />
<glyph unicode="e" horiz-adv-x="1064" d="M53 545q0 231 134.5 394t355.5 163q211 0 340 -160t129 -371q0 -49 -22.5 -72.5t-78.5 -23.5h-678q0 -143 87.5 -237.5t234.5 -94.5q82 0 148.5 22.5t100.5 51.5t66.5 51.5t53.5 22.5q27 0 46 -21.5t19 -58.5q0 -70 -141 -146.5t-295 -76.5q-246 0 -373 160.5t-127 396.5 zM233 610h598q0 131 -74.5 233.5t-213.5 102.5q-9 0 -18 1q-140 0 -211 -94q-75 -100 -81 -243z" />
<glyph unicode="f" horiz-adv-x="530" d="M12 1012q0 78 90 78h74v256q0 113 67.5 174t172.5 61h55q39 0 70.5 -21.5t31.5 -56.5q0 -78 -98 -78h-45q-74 0 -74 -71v-264h113q90 0 90 -78t-90 -78h-113v-850q0 -45 -24.5 -70.5t-65.5 -25.5t-65.5 25.5t-24.5 70.5v850h-74q-90 0 -90 78z" />
<glyph unicode="g" horiz-adv-x="1138" d="M72 544.5q0 229.5 129 393.5t350 164q82 0 159.5 -42t116.5 -95h4v49q0 45 28 66.5t69 21.5q31 0 57.5 -22.5t26.5 -65.5v-936q0 -242 -134.5 -381t-357.5 -139q-141 0 -279.5 65.5t-138.5 132.5q0 33 18.5 58.5t57.5 25.5q31 0 80 -31.5t121 -63.5t156 -32 q158 0 227 99.5t69 236.5v94h-4q-92 -156 -276 -155q-221 0 -350 163.5t-129 393zM252 545q0 -160 73.5 -281t225 -121t225.5 121t74 281t-74 280.5t-225.5 120.5t-225 -120.5t-73.5 -280.5z" />
<glyph unicode="h" horiz-adv-x="1101" d="M119 84v1401q0 45 24.5 70.5t65.5 25.5t65.5 -25.5t24.5 -70.5v-522l4 -5q113 143 301 144q68 0 131.5 -22.5t120.5 -68.5t92 -129t35 -194v-604q0 -45 -24.5 -70.5t-65.5 -25.5t-65.5 25.5t-24.5 70.5v594q0 133 -76 200.5t-176 67.5t-176 -67.5t-76 -200.5v-594 q0 -45 -24.5 -70.5t-65.5 -25.5t-65.5 25.5t-24.5 70.5z" />
<glyph unicode="i" d="M98 1360q0 45 33 77.5t78 32.5t77.5 -32.5t32.5 -77.5t-32.5 -78t-77.5 -33t-78 33t-33 78zM119 84v922q0 45 24.5 70.5t65.5 25.5t65.5 -25.5t24.5 -70.5v-922q0 -45 -24.5 -70.5t-65.5 -25.5t-65.5 25.5t-24.5 70.5z" />
<glyph unicode="j" d="M98 1360q0 45 33 77.5t78 32.5t77.5 -32.5t32.5 -77.5t-32.5 -78t-77.5 -33t-78 33t-33 78zM119 -346v1352q0 45 24.5 70.5t65.5 25.5t65.5 -25.5t24.5 -70.5v-1352q0 -45 -24.5 -70.5t-65.5 -25.5t-65.5 25.5t-24.5 70.5z" />
<glyph unicode="k" horiz-adv-x="948" d="M119 84v1401q0 45 24.5 70.5t65.5 25.5t65.5 -25.5t24.5 -70.5v-768l393 330q61 55 103 55q35 0 55 -22.5t20 -57.5q0 -43 -45 -78l-409 -323l475 -469q43 -43 43 -93q0 -31 -22.5 -51t-53.5 -20t-51.5 11t-52.5 44l-455 475v-434q0 -45 -24.5 -70.5t-65.5 -25.5 t-65.5 25.5t-24.5 70.5z" />
<glyph unicode="l" d="M119 84v1401q0 45 24.5 70.5t65.5 25.5t65.5 -25.5t24.5 -70.5v-1401q0 -45 -24.5 -70.5t-65.5 -25.5t-65.5 25.5t-24.5 70.5z" />
<glyph unicode="m" horiz-adv-x="1708" d="M119 84v922q0 45 24.5 70.5t65.5 25.5t65.5 -25.5t24.5 -70.5v-33l4 -4q29 37 54.5 60.5t85 48t135.5 24.5q190 0 299 -184q129 184 333 184q68 0 131.5 -22.5t121 -68.5t92 -129t34.5 -194v-604q0 -45 -24.5 -70.5t-65.5 -25.5t-65.5 25.5t-24.5 70.5v610 q0 117 -61.5 184.5t-171.5 67.5q-109 0 -170.5 -67.5t-61.5 -184.5v-610q0 -45 -24.5 -70.5t-65.5 -25.5t-65.5 25.5t-24.5 70.5v610q0 117 -61.5 184.5t-172.5 67.5q-109 0 -170 -67.5t-61 -184.5v-610q0 -45 -24.5 -70.5t-65.5 -25.5t-65.5 25.5t-24.5 70.5z" />
<glyph unicode="n" horiz-adv-x="1101" d="M119 84v922q0 45 24.5 70.5t65.5 25.5t65.5 -25.5t24.5 -70.5v-43l4 -5q113 143 301 144q68 0 131.5 -22.5t120.5 -68.5t92 -129t35 -194v-604q0 -45 -24.5 -70.5t-65.5 -25.5t-65.5 25.5t-24.5 70.5v594q0 133 -76 200.5t-176 67.5t-176 -67.5t-76 -200.5v-594 q0 -45 -24.5 -70.5t-65.5 -25.5t-65.5 25.5t-24.5 70.5z" />
<glyph unicode="o" horiz-adv-x="1101" d="M72 544.5q0 229.5 129 393.5t350 164t350 -164t129 -393.5t-129 -393t-350 -163.5t-350 163.5t-129 393zM252 545q0 -160 73.5 -281t225 -121t225.5 121t74 281t-74 280.5t-225.5 120.5t-225 -120.5t-73.5 -280.5z" />
<glyph unicode="p" horiz-adv-x="1138" d="M127 -346v1352q0 45 24.5 70.5t65.5 25.5t65.5 -25.5t24.5 -70.5v-54h4q78 150 291 150t339 -164t126 -393.5t-126 -393t-339 -163.5q-98 0 -174 44t-117 103h-4v-481q0 -45 -24.5 -70.5t-65.5 -25.5t-65.5 25.5t-24.5 70.5zM289 545q0 -160 73.5 -281t225 -121 t225.5 121t74 281t-74 280.5t-225.5 120.5t-225 -120.5t-73.5 -280.5z" />
<glyph unicode="q" horiz-adv-x="1138" d="M72 544.5q0 229.5 126 393.5t339 164t290 -150h4v54q0 45 25 70.5t66 25.5t65.5 -25.5t24.5 -70.5v-1352q0 -45 -24.5 -70.5t-65.5 -25.5t-66 25.5t-25 70.5v481h-4q-41 -59 -116.5 -103t-173.5 -44q-213 0 -339 163.5t-126 393zM252 545q0 -160 73.5 -281t225 -121 t225.5 121t74 281t-74 280.5t-225.5 120.5t-225 -120.5t-73.5 -280.5z" />
<glyph unicode="r" horiz-adv-x="645" d="M119 84v922q0 45 24.5 70.5t65.5 25.5t65.5 -25.5t24.5 -70.5v-93h4q35 72 104.5 130.5t141.5 58.5q47 0 73.5 -26.5t26.5 -65.5q0 -78 -112 -99q-96 -16 -167 -91t-71 -218v-518q0 -45 -24.5 -70.5t-65.5 -25.5t-65.5 25.5t-24.5 70.5z" />
<glyph unicode="s" horiz-adv-x="909" d="M49 195q0 37 21.5 59t52.5 22t76 -33.5t112.5 -66.5t153.5 -33q94 0 152.5 44t58.5 104q0 57 -60.5 103t-145.5 80t-170 72t-145.5 101.5t-60.5 147.5q0 141 111.5 224t259.5 83q123 0 242.5 -56.5t119.5 -136.5q0 -31 -21.5 -52t-60.5 -21q-31 0 -65.5 27.5t-87.5 55 t-127 27.5q-82 0 -136.5 -36t-54.5 -101q0 -51 60.5 -92t145.5 -72t170 -67.5t145.5 -101t60.5 -152.5q0 -162 -116.5 -249t-280.5 -87t-287 66.5t-123 140.5z" />
<glyph unicode="t" horiz-adv-x="532" d="M12 1012q0 78 90 78h74v235q0 45 24.5 70.5t65.5 25.5t65.5 -25.5t24.5 -70.5v-235h74q90 0 90 -78t-90 -78h-74v-850q0 -45 -24.5 -70.5t-65.5 -25.5t-65.5 25.5t-24.5 70.5v850h-74q-90 0 -90 78z" />
<glyph unicode="u" horiz-adv-x="1101" d="M119 422v584q0 45 24.5 70.5t65.5 25.5t65.5 -25.5t24.5 -70.5v-578q0 -285 252 -285t252 285v578q0 45 24.5 70.5t65.5 25.5t65.5 -25.5t24.5 -70.5v-584q0 -223 -124 -328.5t-308 -105.5t-308 105.5t-124 328.5z" />
<glyph unicode="v" horiz-adv-x="872" d="M10 1018q0 39 23.5 61.5t58.5 22.5q70 0 94 -70l248 -753h4l248 753q25 70 94 70q35 0 58.5 -22.5t23.5 -61.5q0 -25 -18 -74l-314 -878q-14 -43 -33.5 -60.5t-60.5 -17.5t-60.5 17.5t-33.5 60.5l-313 878q-19 49 -19 74z" />
<glyph unicode="w" horiz-adv-x="1519" d="M4 1022q0 31 21.5 55.5t64.5 24.5q72 0 100 -92l232 -744h4l227 717q20 68 41 93.5t66 25.5t65.5 -25.5t40.5 -93.5l228 -717h4l231 744q29 92 101 92q43 0 64.5 -24.5t21.5 -55.5q0 -23 -15 -70l-299 -870q-33 -94 -104.5 -94t-102.5 94l-233 735h-4l-234 -735 q-31 -94 -102.5 -94t-104.5 94l-299 870q-14 47 -14 70z" />
<glyph unicode="x" horiz-adv-x="950" d="M12 70q0 37 37 86l322 422l-283 370q-31 39 -31 72q0 35 21.5 58.5t54.5 23.5q45 0 78 -41l264 -352l264 352q33 41 78 41q33 0 54.5 -23.5t21.5 -58.5q0 -33 -31 -72l-282 -370l321 -422q37 -49 37 -86q0 -35 -23.5 -58.5t-58.5 -23.5q-51 0 -80 41l-301 417l-301 -417 q-29 -41 -80 -41q-35 0 -58.5 23.5t-23.5 58.5z" />
<glyph unicode="y" horiz-adv-x="909" d="M35 1026q0 33 24.5 54.5t57.5 21.5q70 0 90 -68l250 -747h4l246 747q20 68 86 68q33 0 57 -21.5t24 -54.5q0 -27 -24 -100l-455 -1301q-25 -68 -88 -67q-33 0 -57.5 21.5t-24.5 53.5q0 29 27 101l115 305l-308 887q-24 73 -24 100z" />
<glyph unicode="z" horiz-adv-x="909" d="M41 63q0 39 37 93l520 778h-446q-90 0 -90.5 78t90.5 78h606q88 0 88 -64q0 -39 -37 -92l-526 -774l6 -4h489q90 0 90 -78t-90 -78h-649q-88 0 -88 63z" />
<glyph unicode="{" horiz-adv-x="493" d="M-31 651q0 33 20.5 49.5t69.5 28.5q35 8 55.5 29.5t29 63.5t10.5 75t2 102v250q0 221 209 221h77q82 0 82 -61t-82 -61h-28q-41 0 -65.5 -27t-24.5 -72v-323q0 -252 -187 -273v-4q186 -20 187 -272v-324q0 -45 24.5 -71.5t65.5 -26.5h28q82 0 82 -61.5t-82 -61.5h-77 q-209 0 -209 221v250q0 70 -2 101.5t-10.5 73.5t-29 63.5t-55.5 31.5q-51 14 -70.5 29.5t-19.5 48.5z" />
<glyph unicode="|" horiz-adv-x="454" d="M143 -512v2048q0 88 84 88t84 -88v-2048q0 -88 -84 -88t-84 88z" />
<glyph unicode="}" horiz-adv-x="493" d="M-31 -106.5q0 61.5 82 61.5h29q41 0 65.5 26.5t24.5 71.5v324q0 252 186 272v4q-186 20 -186 273v323q0 45 -24.5 72t-65.5 27h-29q-82 0 -82 61t82 61h78q209 0 209 -221v-250q0 -70 2 -101.5t10 -73.5t28.5 -63.5t55.5 -31.5q51 -14 70.5 -29.5t19.5 -48.5t-20.5 -49 t-69.5 -29q-35 -8 -55.5 -29.5t-28.5 -63.5t-10 -74.5t-2 -102.5v-250q0 -221 -209 -221h-78q-82 0 -82 61.5z" />
<glyph unicode="~" horiz-adv-x="1228" d="M131 430q0 86 85 161t181 75q98 0 242 -70q139 -70 186 -70q43 0 96.5 71t104.5 69q31 -2 51.5 -19.5t20.5 -40.5q0 -86 -85 -160.5t-182 -74.5q-98 0 -241 69q-139 70 -187 70q-43 0 -96 -70.5t-104 -68.5q-31 2 -51.5 19t-20.5 40z" />
<glyph unicode="&#xa1;" horiz-adv-x="606" d="M199 997q0 43 30.5 74t73.5 31t74 -31t31 -74t-31 -73.5t-74 -30.5t-73.5 30.5t-30.5 73.5zM213 -285v887q0 45 24.5 70.5t65.5 25.5t65.5 -25.5t24.5 -70.5v-887q0 -45 -24.5 -70.5t-65.5 -25.5t-65.5 25.5t-24.5 70.5z" />
<glyph unicode="&#xa2;" horiz-adv-x="909" d="M72 545q0 207 101 361.5t292 187.5v118q0 43 43 43t43 -43v-110q141 0 223 -40t82 -97q0 -29 -21.5 -52.5t-52.5 -23.5q-27 0 -91 28.5t-140 28.5v-803q80 0 145.5 31t83.5 31q70 0 70 -76q0 -55 -80 -98t-219 -43v-111q0 -43 -43 -43t-43 43v121q-190 33 -291.5 186.5 t-101.5 360.5zM252 545q0 -127 53 -236.5t160 -146.5v768q-106 -39 -159.5 -148.5t-53.5 -236.5z" />
<glyph unicode="&#xa3;" horiz-adv-x="1214" d="M61 731q0 84 89 84h157q-100 180 -100 293q0 158 132 260t310 102t323.5 -118.5t145.5 -243.5q0 -41 -23.5 -64.5t-62.5 -23.5q-37 0 -60.5 28.5t-43 70.5t-46 84t-85 71t-146.5 29q-106 0 -185 -55.5t-79 -151.5q0 -39 12.5 -80t22.5 -64.5t38 -72.5l36 -64h264 q88 0 88 -84t-88 -84h-223q14 -82 14 -135q0 -76 -48 -174t-128 -170h690q88 0 88 -84t-88 -84h-819q-109 0 -109 86q0 29 37 71t80 84t80 116.5t37 156.5q0 80 -15 133h-206q-89 0 -89 84z" />
<glyph unicode="&#xa4;" horiz-adv-x="1097" d="M41 729.5q0 192.5 100 304.5l-69 72q-29 29 -29 57q0 31 23.5 52.5t46.5 21.5q20 0 43 -23l86 -88q117 111 307 111t307 -111l86 88q23 23 43 23q23 0 46.5 -21.5t23.5 -52.5q0 -29 -29 -57l-70 -72q100 -113 100.5 -305t-100.5 -305l70 -72q29 -29 29 -57 q0 -31 -23.5 -52.5t-46.5 -21.5q-20 0 -43 23l-86 88q-117 -111 -307.5 -111t-306.5 111l-86 -88q-23 -23 -43 -23q-23 0 -46.5 21.5t-23.5 52.5q0 29 29 57l69 72q-100 113 -100 305.5zM209 729q0 -154 100.5 -253t239.5 -99t239.5 99t100.5 253t-100.5 253t-239.5 99 t-239.5 -99t-100.5 -253z" />
<glyph unicode="&#xa5;" horiz-adv-x="1097" d="M16 1403q0 29 22.5 48t49.5 19q55 0 94 -57l367 -551l366 551q39 57 95 57q27 0 49 -19t22 -48q0 -35 -30 -82l-328 -506h197q84 0 84 -67.5t-84 -67.5h-281v-145h281q84 0 84 -68t-84 -68h-281v-315q0 -45 -24.5 -70.5t-65.5 -25.5t-65.5 25.5t-24.5 70.5v315h-281 q-84 0 -84 68t84 68h281v145h-281q-84 0 -84 67.5t84 67.5h197l-328 506q-31 47 -31 82z" />
<glyph unicode="&#xa6;" horiz-adv-x="454" d="M143 -270v540q0 88 84 88t84 -88v-540q0 -88 -84 -88t-84 88zM143 754v540q0 88 84 88t84 -88v-540q0 -88 -84 -88t-84 88z" />
<glyph unicode="&#xa7;" horiz-adv-x="1138" d="M57 553q0 127 64.5 208t185.5 142q-74 53 -103.5 104.5t-29.5 127.5q0 158 119 246.5t313 88.5q176 0 298 -98t122 -211q0 -39 -21.5 -66.5t-60.5 -27.5q-35 0 -58.5 25.5t-41 62.5t-41 73t-76.5 61.5t-133 25.5q-102 0 -171 -46t-69 -126q0 -72 75 -128.5t181.5 -99.5 t214 -95t182 -143t74.5 -214q0 -100 -62.5 -195.5t-160.5 -150.5q133 -90 133 -242q0 -143 -132 -231q-129 -86 -290 -86h-8q-109 2 -202 34.5t-147 79.5t-84 95.5t-30 85.5q0 102 90 102q37 0 61.5 -24.5t43 -60.5t45.5 -72t82 -60.5t137 -24.5q119 0 186.5 47t67.5 117 q0 61 -56.5 111.5t-139.5 83t-181 78t-181 92.5t-139.5 128t-56.5 183zM238 567q0 -76 61 -132t193 -122l233 -114q104 78 140 136t36 122q0 76 -35 129t-147 104l-256 119q-106 -45 -165.5 -100.5t-59.5 -141.5z" />
<glyph unicode="&#xa8;" d="M-92 1348q0 45 31.5 77.5t79 32.5t79 -32.5t31.5 -77.5t-31.5 -78t-79 -33t-79 33t-31.5 78zM289 1348q0 45 31.5 77.5t78.5 32.5t79 -32.5t32 -77.5t-32 -78t-79 -33t-78.5 33t-31.5 78z" />
<glyph unicode="&#xa9;" horiz-adv-x="1638" d="M78 729q0 307 217 524t524 217t524.5 -217t217.5 -524t-217.5 -524t-524.5 -217t-524 217t-217 524zM246 729q0 -242 170 -414t403.5 -172t403.5 172t170 414t-170 414t-403.5 172t-403.5 -172t-170 -414zM389 733q0 197 119 325t315 128q170 0 268.5 -92.5t98.5 -167.5 q0 -57 -68 -58q-35 0 -62.5 29t-46 62.5t-67.5 62.5t-123 29q-127 0 -196.5 -88.5t-69.5 -229.5q0 -131 74 -224t192 -93q61 0 105.5 19.5t69 47t43 55t39 47t44.5 19.5q66 0 66 -57q0 -72 -101.5 -169t-265.5 -97q-193 0 -313.5 129.5t-120.5 322.5z" />
<glyph unicode="&#xaa;" horiz-adv-x="739" d="M59 1137q0 143 86 238t226 95q106 0 170 -86h4v33q0 53 67.5 53t67.5 -53v-563q0 -53 -67.5 -53t-67.5 53v33h-4q-63 -86 -170 -86q-139 0 -225.5 95.5t-86.5 240.5zM207 1137q0 -88 47 -150.5t123 -62.5t123 62.5t47 150.5q0 86 -47 148.5t-123 62.5t-123 -62.5 t-47 -148.5z" />
<glyph unicode="&#xab;" horiz-adv-x="833" d="M78 549l203 364q31 53 69 54q33 0 57.5 -18.5t24.5 -53.5q0 -25 -22 -64l-170 -282l170 -283q23 -39 22 -63q0 -35 -24.5 -53.5t-57.5 -18.5q-39 0 -69 53zM401 549l203 364q31 53 70 54q33 0 57.5 -18.5t24.5 -53.5q0 -25 -23 -64l-170 -282l170 -283q23 -39 23 -63 q0 -35 -24.5 -53.5t-57.5 -18.5q-39 0 -70 53z" />
<glyph unicode="&#xac;" horiz-adv-x="1228" d="M96 731q0 84 88 84h865q84 0 84 -88v-418q0 -88 -84 -88t-84 88v338h-781q-88 0 -88 84z" />
<glyph unicode="&#xad;" horiz-adv-x="720" d="M72 549q0 33 22.5 55.5t55.5 22.5h421q33 0 55.5 -22.5t22.5 -55.5t-22.5 -55.5t-55.5 -22.5h-421q-33 0 -55.5 22.5t-22.5 55.5z" />
<glyph unicode="&#xae;" horiz-adv-x="1638" d="M78 729q0 307 217 524t524 217t524.5 -217t217.5 -524t-217.5 -524t-524.5 -217t-524 217t-217 524zM246 729q0 -242 170 -414t403.5 -172t403.5 172t170 414t-170 414t-403.5 172t-403.5 -172t-170 -414zM514 365v735q0 43 47 43h270q160 0 235 -55.5t75 -188.5 q0 -209 -211 -235l182 -279q20 -31 21 -51q0 -16 -24 -25.5t-52 -9.5q-53 0 -82 45l-195 313h-131v-292q0 -66 -67.5 -66t-67.5 66zM649 780h156q47 0 76.5 3t61.5 15.5t47.5 40t15.5 70.5q0 47 -32 74t-67 32t-90 5h-168v-240z" />
<glyph unicode="&#xaf;" d="M-86 1327q0 84 88 84h414q88 0 88 -84t-88 -84h-414q-88 0 -88 84z" />
<glyph unicode="&#xb0;" horiz-adv-x="819" d="M117 1177.5q0 120.5 86 206.5t206.5 86t206.5 -86t86 -206.5t-86 -206.5t-206.5 -86t-206.5 86t-86 206.5zM227 1177.5q0 -75.5 53.5 -129t129 -53.5t129 53.5t53.5 129t-53.5 129t-129 53.5t-129 -53.5t-53.5 -129z" />
<glyph unicode="&#xb1;" horiz-adv-x="1228" d="M96 84q0 84 88 84h860q88 0 88.5 -84t-88.5 -84h-860q-88 0 -88 84zM96 639q0 84 88 84h346v225q0 88 84 88t84 -88v-225h346q88 0 88.5 -84t-88.5 -84h-346v-225q0 -88 -84 -88t-84 88v225h-346q-88 0 -88 84z" />
<glyph unicode="&#xb2;" horiz-adv-x="712" d="M63 639q0 16 25 47l350 444q53 68 53.5 115t-35.5 75t-96 28q-74 0 -123 -54.5t-49 -113.5q0 -49 -59 -50q-63 0 -63 68q0 113 80.5 192.5t222.5 79.5q129 0 199.5 -63.5t70.5 -157.5q0 -82 -74 -172l-297 -358h303q78 0 78 -61.5t-78 -61.5h-446q-31 0 -46.5 13.5 t-15.5 29.5z" />
<glyph unicode="&#xb3;" horiz-adv-x="712" d="M61 799q0 66 58 65q37 0 59 -51q49 -106 166 -106q66 0 113 45t47 110q0 129 -137 129q-57 0 -76 13.5t-19 37.5q0 27 13.5 39.5t48.5 20.5q66 14 93.5 47t27.5 90q0 43 -35 76t-90 33q-59 0 -92 -30t-41 -71q-6 -47 -60 -47q-51 0 -51 57q0 92 66.5 152.5t183.5 60.5 q125 0 195.5 -64.5t70.5 -160.5q0 -125 -113 -186q78 -23 120 -79t42 -132q0 -121 -91 -192.5t-226 -71.5q-125 0 -199 67.5t-74 147.5z" />
<glyph unicode="&#xb4;" d="M-18 1329q0 47 71 76l236 96q45 18 69 19q37 0 57.5 -29t20.5 -57q0 -47 -71 -76l-236 -96q-45 -18 -70 -19q-37 0 -57 28.5t-20 57.5z" />
<glyph unicode="&#xb5;" horiz-adv-x="1101" d="M119 -346v1352q0 45 24.5 70.5t65.5 25.5t65.5 -25.5t24.5 -70.5v-578q0 -154 56.5 -219.5t195.5 -65.5t195.5 65.5t56.5 219.5v578q0 45 24.5 70.5t65.5 25.5t65.5 -25.5t24.5 -70.5v-922q0 -45 -24.5 -70.5t-65.5 -25.5q-68 0 -84 59q-98 -59 -258 -59q-166 0 -252 94 v-428q0 -45 -24.5 -70.5t-65.5 -25.5t-65.5 25.5t-24.5 70.5z" />
<glyph unicode="&#xb6;" horiz-adv-x="1228" d="M57 1083q0 170 134.5 272.5t388.5 102.5h391q96 0 96 -98v-1714q0 -88 -84 -88t-84 88v1677h-235v-1677q0 -88 -84 -88t-84 88v1059q-197 0 -318 105t-121 273z" />
<glyph unicode="&#xb7;" horiz-adv-x="512" d="M145 620.5q0 47.5 32 79t79 31.5t79 -31.5t32 -79t-32 -79t-79 -31.5t-79 31.5t-32 79z" />
<glyph unicode="&#xb8;" d="M123 -297q0 23 11 39t32 16q12 0 49 -8t57 -8q72 0 72 55q0 25 -18.5 31t-71.5 6q-23 0 -38 8t-19 16.5t-4 14.5q0 20 20 51l53 76h109l-60 -86q31 6 43 6q63 0 102.5 -37t39.5 -76q0 -90 -61.5 -133t-166.5 -43q-66 0 -107.5 19.5t-41.5 52.5z" />
<glyph unicode="&#xb9;" horiz-adv-x="468" d="M16 1396.5q0 61.5 58 61.5h213q39 0 39 -28v-773q0 -74 -74 -73q-31 0 -52.5 18.5t-21.5 54.5v678h-104q-58 0 -58 61.5z" />
<glyph unicode="&#xba;" horiz-adv-x="716" d="M47 1137q0 143 86 238t225.5 95t225.5 -95t86 -238q0 -145 -85 -240.5t-227 -95.5q-139 0 -225 95.5t-86 240.5zM195 1137q0 -88 46 -150.5t117.5 -62.5t117.5 62.5t46 150.5q0 86 -46 148.5t-117.5 62.5t-117.5 -62.5t-46 -148.5z" />
<glyph unicode="&#xbb;" horiz-adv-x="833" d="M78 203q0 25 22 63l170 283l-170 282q-23 39 -22 64q0 35 24.5 53.5t57.5 18.5q39 0 69 -54l203 -364l-203 -365q-31 -53 -69 -53q-33 0 -57.5 18.5t-24.5 53.5zM401 203q0 25 23 63l170 283l-170 282q-23 39 -23 64q0 35 25 53.5t57 18.5q39 0 70 -54l203 -364 l-203 -365q-31 -53 -70 -53q-33 0 -57.5 18.5t-24.5 53.5z" />
<glyph unicode="&#xbc;" horiz-adv-x="1648" d="M74 1396.5q0 61.5 57 61.5h213q39 0 39 -28v-773q0 -74 -74 -73q-31 0 -52 18.5t-21 54.5v678h-105q-57 0 -57 61.5zM385 26.5q0 22.5 29 92.5l544 1306q27 61 72 62q35 0 53.5 -17.5t18.5 -37.5q0 -25 -29 -93l-545 -1306q-27 -61 -75 -62q-31 0 -49.5 16.5t-18.5 39z M911 248q0 27 29 71l326 490q41 65 102 65q102 0 102 -90v-462h50q25 0 40 -17.5t15 -44.5t-15.5 -44t-39.5 -17h-50v-148q0 -63 -73.5 -63t-73.5 63v148h-365q-47 0 -47 49zM1081 322h242v405h-4z" />
<glyph unicode="&#xbd;" horiz-adv-x="1648" d="M74 1396.5q0 61.5 57 61.5h213q39 0 39 -28v-773q0 -74 -74 -73q-31 0 -52 18.5t-21 54.5v678h-105q-57 0 -57 61.5zM324 26.5q0 22.5 28 92.5l545 1306q27 61 72 62q35 0 53 -17.5t18 -37.5q0 -25 -28 -93l-545 -1306q-27 -61 -76 -62q-31 0 -49 16.5t-18 39zM928 43 q0 16 24 47l351 445q53 68 53 114.5t-36 74.5t-95 28q-74 0 -123 -54.5t-49 -113.5q0 -49 -60 -49q-63 0 -63 67q0 113 81 193t222 80q129 0 199.5 -63.5t70.5 -158.5q0 -84 -73 -172l-297 -358h303q78 0 77.5 -61.5t-77.5 -61.5h-447q-31 0 -46 13.5t-15 29.5z" />
<glyph unicode="&#xbe;" horiz-adv-x="1648" d="M86 799q0 66 57 65q37 0 60 -51q49 -106 166 -106q66 0 112.5 45t46.5 110q0 129 -137 129q-57 0 -75.5 13.5t-18.5 37.5q0 27 13.5 39.5t47.5 20.5q66 14 93.5 47t27.5 90q0 43 -34.5 76t-90.5 33q-59 0 -92 -30t-41 -71q-6 -47 -59 -47q-51 0 -51 57q0 92 66.5 152.5 t182.5 60.5q125 0 196 -64.5t71 -160.5q0 -125 -113 -186q78 -23 120 -79t42 -132q0 -121 -91 -192.5t-227 -71.5q-125 0 -198.5 67.5t-73.5 147.5zM508 26.5q0 22.5 29 92.5l544 1306q27 61 72 62q35 0 53.5 -17.5t18.5 -37.5q0 -25 -29 -93l-545 -1306q-27 -61 -76 -62 q-31 0 -49 16.5t-18 39zM911 248q0 27 29 71l326 490q41 65 102 65q102 0 102 -90v-462h50q25 0 40 -17.5t15 -44.5t-15.5 -44t-39.5 -17h-50v-148q0 -63 -73.5 -63t-73.5 63v148h-365q-47 0 -47 49zM1081 322h242v405h-4z" />
<glyph unicode="&#xbf;" horiz-adv-x="909" d="M37 -4q0 162 93 265.5t251 135.5v205q0 45 24.5 70.5t65.5 25.5t65.5 -25.5t24.5 -70.5v-231q0 -72 -20.5 -94.5t-122.5 -43.5q-188 -39 -189 -221q0 -102 67 -163.5t171 -61.5q178 0 238 168q23 68 79 68q37 0 64 -27q25 -25 25 -62q0 -132 -129 -226q-122 -89 -271 -89 q-186 0 -311 107.5t-125 269.5zM367 997q0 43 30.5 74t73.5 31t73.5 -31t30.5 -74t-30.5 -73.5t-73.5 -30.5t-73.5 30.5t-30.5 73.5z" />
<glyph unicode="&#xc0;" horiz-adv-x="1253" d="M20 63q0 16 25 91l453 1206q39 111 129 110.5t129 -110.5l452 -1206q25 -74 25 -91q0 -35 -24.5 -55t-61.5 -20q-63 0 -88 67l-94 262h-676l-94 -262q-25 -68 -89 -67q-37 0 -61.5 20t-24.5 55zM344 473h565l-280 789h-4zM399 1761q0 29 20.5 57.5t57.5 28.5q25 0 70 -18 l235 -96q72 -29 72 -76q0 -29 -20.5 -57.5t-57.5 -28.5q-25 0 -69 18l-236 97q-72 28 -72 75z" />
<glyph unicode="&#xc1;" horiz-adv-x="1253" d="M20 63q0 16 25 91l453 1206q39 111 129 110.5t129 -110.5l452 -1206q25 -74 25 -91q0 -35 -24.5 -55t-61.5 -20q-63 0 -88 67l-94 262h-676l-94 -262q-25 -68 -89 -67q-37 0 -61.5 20t-24.5 55zM344 473h565l-280 789h-4zM399 1657q0 47 72 76l236 96q45 18 69 18 q37 0 57.5 -28.5t20.5 -57.5q0 -47 -72 -75l-235 -97q-45 -18 -70 -18q-37 0 -57.5 28.5t-20.5 57.5z" />
<glyph unicode="&#xc2;" horiz-adv-x="1253" d="M20 63q0 16 25 91l453 1206q39 111 129 110.5t129 -110.5l452 -1206q25 -74 25 -91q0 -35 -24.5 -55t-61.5 -20q-63 0 -88 67l-94 262h-676l-94 -262q-25 -68 -89 -67q-37 0 -61.5 20t-24.5 55zM315 1649q0 51 47 71l265 113l264 -113q47 -20 47 -71q0 -33 -20.5 -55.5 t-53.5 -22.5q-23 0 -45 10l-192 76l-193 -76q-23 -10 -45 -10q-33 0 -53.5 22.5t-20.5 55.5zM344 473h565l-280 789h-4z" />
<glyph unicode="&#xc3;" horiz-adv-x="1253" d="M20 63q0 16 25 91l453 1206q39 111 129 110.5t129 -110.5l452 -1206q25 -74 25 -91q0 -35 -24.5 -55t-61.5 -20q-63 0 -88 67l-94 262h-676l-94 -262q-25 -68 -89 -67q-37 0 -61.5 20t-24.5 55zM322 1669q0 49 54 89t136 40q49 0 117.5 -20.5t107.5 -20.5q31 0 68 20.5 t59 20.5q25 0 46.5 -24.5t21.5 -55.5q0 -49 -54.5 -89t-136.5 -40q-49 0 -117.5 20.5t-107.5 20.5q-31 0 -67.5 -20.5t-59.5 -20.5q-25 0 -46 24.5t-21 55.5zM344 473h565l-280 789h-4z" />
<glyph unicode="&#xc4;" horiz-adv-x="1253" d="M20 63q0 16 25 91l453 1206q39 111 129 110.5t129 -110.5l452 -1206q25 -74 25 -91q0 -35 -24.5 -55t-61.5 -20q-63 0 -88 67l-94 262h-676l-94 -262q-25 -68 -89 -67q-37 0 -61.5 20t-24.5 55zM326 1675q0 45 31.5 78t78.5 33t79 -33t32 -78t-32 -77.5t-79 -32.5 t-78.5 32.5t-31.5 77.5zM344 473h565l-280 789h-4zM707 1675q0 45 31.5 78t78.5 33t79 -33t32 -78t-32 -77.5t-79 -32.5t-78.5 32.5t-31.5 77.5z" />
<glyph unicode="&#xc5;" horiz-adv-x="1253" d="M20 63q0 16 25 91l453 1206q39 111 129 110.5t129 -110.5l452 -1206q25 -74 25 -91q0 -35 -24.5 -55t-61.5 -20q-63 0 -88 67l-94 262h-676l-94 -262q-25 -68 -89 -67q-37 0 -61.5 20t-24.5 55zM344 473h565l-280 789h-4zM434 1696q0 80 56.5 136t136.5 56t136 -56 t56 -136t-56 -136.5t-136 -56.5t-136.5 56.5t-56.5 136.5zM532 1696q0 -39 28 -66.5t67 -27.5t66.5 27.5t27.5 66.5t-27.5 66.5t-66.5 27.5t-67 -27.5t-28 -66.5z" />
<glyph unicode="&#xc6;" horiz-adv-x="1554" d="M-18 53q0 31 26 84l637 1243q27 51 50.5 64.5t74.5 13.5h588q88 0 88 -84t-88 -84h-414v-477h395q88 0 88 -84t-88 -84h-395v-477h434q88 0 88 -84t-88 -84h-518q-96 0 -96 98v219h-473l-139 -272q-27 -57 -86 -57q-37 0 -60.5 19t-23.5 46zM369 473h395v776h-4z" />
<glyph unicode="&#xc7;" horiz-adv-x="1214" d="M63 729q0 145 42 276.5t120 236t205 166.5t283 62q176 0 299 -73.5t123 -139.5q0 -37 -20.5 -61.5t-53.5 -24.5q-31 0 -72 36t-109.5 72t-166.5 36q-117 0 -207 -51.5t-143.5 -137.5t-80 -187t-26.5 -210q0 -233 115.5 -409.5t330.5 -176.5q96 0 177.5 33t134.5 65.5 t80 32.5q33 0 52 -22.5t19 -61.5q0 -70 -128 -132t-302 -68l-51 -76q31 6 43 6q63 0 102 -37t39 -76q0 -90 -61.5 -133t-165.5 -43q-66 0 -107.5 19.5t-41.5 52.5q0 23 11 39t32 16q12 0 49 -8t57 -8q72 0 72 55q0 25 -18.5 31t-71.5 6q-23 0 -38.5 8t-19.5 16.5t-4 14.5 q0 20 21 51l47 68q-266 29 -416 240.5t-150 496.5z" />
<glyph unicode="&#xc8;" horiz-adv-x="909" d="M119 98v1262q0 98 96 98h518q88 0 88 -84t-88 -84h-434v-477h395q88 0 88 -84t-88 -84h-395v-477h434q88 0 88 -84t-88 -84h-518q-96 0 -96 98zM227 1761q0 29 20.5 57.5t57.5 28.5q25 0 70 -18l235 -96q72 -29 72 -76q0 -29 -20.5 -57.5t-57.5 -28.5q-25 0 -69 18 l-236 97q-72 28 -72 75z" />
<glyph unicode="&#xc9;" horiz-adv-x="909" d="M119 98v1262q0 98 96 98h518q88 0 88 -84t-88 -84h-434v-477h395q88 0 88 -84t-88 -84h-395v-477h434q88 0 88 -84t-88 -84h-518q-96 0 -96 98zM227 1657q0 47 72 76l236 96q45 18 69 18q37 0 57.5 -28.5t20.5 -57.5q0 -47 -72 -75l-235 -97q-45 -18 -70 -18 q-37 0 -57.5 28.5t-20.5 57.5z" />
<glyph unicode="&#xca;" horiz-adv-x="909" d="M119 98v1262q0 98 96 98h518q88 0 88 -84t-88 -84h-434v-477h395q88 0 88 -84t-88 -84h-395v-477h434q88 0 88 -84t-88 -84h-518q-96 0 -96 98zM143 1649q0 51 47 71l265 113l264 -113q47 -20 47 -71q0 -33 -20.5 -55.5t-53.5 -22.5q-23 0 -45 10l-192 76l-193 -76 q-23 -10 -45 -10q-33 0 -53.5 22.5t-20.5 55.5z" />
<glyph unicode="&#xcb;" horiz-adv-x="909" d="M119 98v1262q0 98 96 98h518q88 0 88 -84t-88 -84h-434v-477h395q88 0 88 -84t-88 -84h-395v-477h434q88 0 88 -84t-88 -84h-518q-96 0 -96 98zM154 1675q0 45 31.5 78t78.5 33t79 -33t32 -78t-32 -77.5t-79 -32.5t-78.5 32.5t-31.5 77.5zM535 1675q0 45 31.5 78t78.5 33 t79 -33t32 -78t-32 -77.5t-79 -32.5t-78.5 32.5t-31.5 77.5z" />
<glyph unicode="&#xcc;" d="M-18 1761q0 29 20.5 57.5t56.5 28.5q25 0 70 -18l236 -96q72 -29 71 -76q0 -29 -20.5 -57.5t-57.5 -28.5q-25 0 -69 18l-236 97q-71 28 -71 75zM119 84v1290q0 45 24.5 70.5t65.5 25.5t65.5 -25.5t24.5 -70.5v-1290q0 -45 -24.5 -70.5t-65.5 -25.5t-65.5 25.5t-24.5 70.5 z" />
<glyph unicode="&#xcd;" d="M-18 1657q0 47 71 76l236 96q45 18 69 18q37 0 57.5 -28.5t20.5 -57.5q0 -47 -71 -75l-236 -97q-45 -18 -70 -18q-37 0 -57 28.5t-20 57.5zM119 84v1290q0 45 24.5 70.5t65.5 25.5t65.5 -25.5t24.5 -70.5v-1290q0 -45 -24.5 -70.5t-65.5 -25.5t-65.5 25.5t-24.5 70.5z " />
<glyph unicode="&#xce;" d="M-102 1649q0 51 47 71l264 113l264 -113q47 -20 47 -71q0 -33 -20.5 -55.5t-53.5 -22.5q-23 0 -45 10l-192 76l-193 -76q-23 -10 -45 -10q-33 0 -53 22.5t-20 55.5zM119 84v1290q0 45 24.5 70.5t65.5 25.5t65.5 -25.5t24.5 -70.5v-1290q0 -45 -24.5 -70.5t-65.5 -25.5 t-65.5 25.5t-24.5 70.5z" />
<glyph unicode="&#xcf;" d="M-92 1675q0 45 31.5 78t79 33t79 -33t31.5 -78t-31.5 -77.5t-79 -32.5t-79 32.5t-31.5 77.5zM119 84v1290q0 45 24.5 70.5t65.5 25.5t65.5 -25.5t24.5 -70.5v-1290q0 -45 -24.5 -70.5t-65.5 -25.5t-65.5 25.5t-24.5 70.5zM289 1675q0 45 31.5 78t78.5 33t79 -33t32 -78 t-32 -77.5t-79 -32.5t-78.5 32.5t-31.5 77.5z" />
<glyph unicode="&#xd0;" horiz-adv-x="1290" d="M-37 735q0 37 24.5 57.5t63.5 20.5h78v547q0 98 96 98h355q209 0 358 -101.5t219 -261t70 -358.5q0 -332 -167 -534.5t-456 -202.5h-379q-96 0 -96 98v559h-78q-39 0 -63.5 20.5t-24.5 57.5zM309 657v-501h258q123 0 216.5 48t146.5 132t78.5 184.5t25.5 216.5 q0 246 -118.5 406t-360.5 160h-246v-490h246q39 0 63.5 -20.5t24.5 -57.5t-24.5 -57.5t-63.5 -20.5h-246z" />
<glyph unicode="&#xd1;" horiz-adv-x="1368" d="M119 84v1280q0 106 82 106q39 0 63.5 -19t63.5 -75l737 -1059h4v1057q0 45 24.5 70.5t65.5 25.5t65.5 -25.5t24.5 -70.5v-1280q0 -106 -82 -106q-39 0 -63.5 19.5t-63.5 74.5l-737 1059h-4v-1057q0 -45 -24.5 -70.5t-65.5 -25.5t-65.5 25.5t-24.5 70.5zM379 1669 q0 49 54 89t136 40q49 0 118 -20.5t108 -20.5q31 0 67.5 20.5t59.5 20.5q25 0 46 -24.5t21 -55.5q0 -49 -54 -89t-136 -40q-49 0 -118 20.5t-108 20.5q-31 0 -67.5 -20.5t-59.5 -20.5q-25 0 -46 24.5t-21 55.5z" />
<glyph unicode="&#xd2;" horiz-adv-x="1404" d="M63 729.5q0 194.5 71 360t220.5 273t348 107.5t348 -107.5t220 -273t70.5 -360t-70.5 -360.5t-220 -273.5t-348 -107.5t-348 107.5t-220.5 273.5t-71 360.5zM256 729.5q0 -149.5 41 -276.5t145.5 -218.5t260 -91.5t260 91.5t145.5 218.5t41 276.5t-41 276.5t-145.5 218 t-260 91t-260 -91t-145.5 -218t-41 -276.5zM475 1761q0 29 20.5 57.5t57.5 28.5q25 0 70 -18l235 -96q72 -29 72 -76q0 -29 -20.5 -57.5t-57.5 -28.5q-25 0 -70 18l-235 97q-72 28 -72 75z" />
<glyph unicode="&#xd3;" horiz-adv-x="1404" d="M63 729.5q0 194.5 71 360t220.5 273t348 107.5t348 -107.5t220 -273t70.5 -360t-70.5 -360.5t-220 -273.5t-348 -107.5t-348 107.5t-220.5 273.5t-71 360.5zM256 729.5q0 -149.5 41 -276.5t145.5 -218.5t260 -91.5t260 91.5t145.5 218.5t41 276.5t-41 276.5t-145.5 218 t-260 91t-260 -91t-145.5 -218t-41 -276.5zM475 1657q0 47 72 76l235 96q45 18 70 18q37 0 57.5 -28.5t20.5 -57.5q0 -47 -72 -75l-235 -97q-45 -18 -70 -18q-37 0 -57.5 28.5t-20.5 57.5z" />
<glyph unicode="&#xd4;" horiz-adv-x="1404" d="M63 729.5q0 194.5 71 360t220.5 273t348 107.5t348 -107.5t220 -273t70.5 -360t-70.5 -360.5t-220 -273.5t-348 -107.5t-348 107.5t-220.5 273.5t-71 360.5zM256 729.5q0 -149.5 41 -276.5t145.5 -218.5t260 -91.5t260 91.5t145.5 218.5t41 276.5t-41 276.5t-145.5 218 t-260 91t-260 -91t-145.5 -218t-41 -276.5zM391 1649q0 51 47 71l264 113l265 -113q47 -20 47 -71q0 -33 -20.5 -55.5t-53.5 -22.5q-23 0 -45 10l-193 76l-192 -76q-23 -10 -45 -10q-33 0 -53.5 22.5t-20.5 55.5z" />
<glyph unicode="&#xd5;" horiz-adv-x="1404" d="M63 729.5q0 194.5 71 360t220.5 273t348 107.5t348 -107.5t220 -273t70.5 -360t-70.5 -360.5t-220 -273.5t-348 -107.5t-348 107.5t-220.5 273.5t-71 360.5zM256 729.5q0 -149.5 41 -276.5t145.5 -218.5t260 -91.5t260 91.5t145.5 218.5t41 276.5t-41 276.5t-145.5 218 t-260 91t-260 -91t-145.5 -218t-41 -276.5zM397 1669q0 49 54.5 89t136.5 40q49 0 117.5 -20.5t107.5 -20.5q31 0 68 20.5t59 20.5q25 0 46.5 -24.5t21.5 -55.5q0 -49 -54.5 -89t-136.5 -40q-49 0 -117.5 20.5t-107.5 20.5q-31 0 -68 -20.5t-59 -20.5q-25 0 -46.5 24.5 t-21.5 55.5z" />
<glyph unicode="&#xd6;" horiz-adv-x="1404" d="M63 729.5q0 194.5 71 360t220.5 273t348 107.5t348 -107.5t220 -273t70.5 -360t-70.5 -360.5t-220 -273.5t-348 -107.5t-348 107.5t-220.5 273.5t-71 360.5zM256 729.5q0 -149.5 41 -276.5t145.5 -218.5t260 -91.5t260 91.5t145.5 218.5t41 276.5t-41 276.5t-145.5 218 t-260 91t-260 -91t-145.5 -218t-41 -276.5zM401 1675q0 45 33 78t78 33t78 -33t33 -78t-33 -77.5t-78 -32.5t-78 32.5t-33 77.5zM782 1675q0 45 33 78t78 33t78 -33t33 -78t-33 -77.5t-78 -32.5t-78 32.5t-33 77.5z" />
<glyph unicode="&#xd7;" horiz-adv-x="1228" d="M143 123q0 39 43 82l314 313l-314 313q-43 43 -43 82q0 29 21.5 52.5t52.5 23.5q39 0 86 -47l311 -309l312 309q47 47 86 47q31 0 52 -23.5t21 -52.5q0 -39 -43 -82l-313 -313l313 -313q43 -43 43 -82q0 -29 -21.5 -52.5t-51.5 -23.5q-39 0 -86 47l-312 312l-311 -312 q-47 -47 -86 -47q-31 0 -52.5 23.5t-21.5 52.5z" />
<glyph unicode="&#xd8;" horiz-adv-x="1404" d="M41 27q0 27 29 61l135 158q-141 205 -142 483q0 195 71 360.5t220.5 273t347.5 107.5q246 0 414 -161l121 143q29 35 63 35q25 0 44.5 -15.5t19.5 -42t-25 -53.5l-141 -164q143 -203 143 -483q0 -195 -70.5 -360.5t-220 -273t-348.5 -107.5q-246 0 -413 164l-125 -148 q-29 -33 -64 -33q-27 0 -43 18t-16 38zM256 729q0 -197 72 -340l680 795q-117 131 -306 131q-156 0 -260 -91t-145 -218t-41 -277zM397 276q113 -133 305 -133q156 0 260.5 91.5t145.5 218.5t41 276q0 199 -70 344z" />
<glyph unicode="&#xd9;" horiz-adv-x="1368" d="M119 578v796q0 45 24.5 70.5t65.5 25.5t65.5 -25.5t24.5 -70.5v-866q0 -170 105.5 -267.5t279.5 -97.5t279.5 97.5t105.5 267.5v866q0 45 24.5 70.5t65.5 25.5t65.5 -25.5t24.5 -70.5v-796q0 -141 -35.5 -250t-91 -171.5t-132.5 -102.5t-150.5 -53t-155.5 -13t-155.5 13 t-150.5 53t-132.5 102.5t-91 171.5t-35.5 250zM457 1761q0 29 20.5 57.5t57.5 28.5q25 0 69 -18l236 -96q72 -29 71 -76q0 -29 -20.5 -57.5t-56.5 -28.5q-25 0 -70 18l-236 97q-71 28 -71 75z" />
<glyph unicode="&#xda;" horiz-adv-x="1368" d="M119 578v796q0 45 24.5 70.5t65.5 25.5t65.5 -25.5t24.5 -70.5v-866q0 -170 105.5 -267.5t279.5 -97.5t279.5 97.5t105.5 267.5v866q0 45 24.5 70.5t65.5 25.5t65.5 -25.5t24.5 -70.5v-796q0 -141 -35.5 -250t-91 -171.5t-132.5 -102.5t-150.5 -53t-155.5 -13t-155.5 13 t-150.5 53t-132.5 102.5t-91 171.5t-35.5 250zM457 1657q0 47 71 76l236 96q45 18 70 18q37 0 57 -28.5t20 -57.5q0 -47 -71 -75l-236 -97q-45 -18 -69 -18q-37 0 -57.5 28.5t-20.5 57.5z" />
<glyph unicode="&#xdb;" horiz-adv-x="1368" d="M119 578v796q0 45 24.5 70.5t65.5 25.5t65.5 -25.5t24.5 -70.5v-866q0 -170 105.5 -267.5t279.5 -97.5t279.5 97.5t105.5 267.5v866q0 45 24.5 70.5t65.5 25.5t65.5 -25.5t24.5 -70.5v-796q0 -141 -35.5 -250t-91 -171.5t-132.5 -102.5t-150.5 -53t-155.5 -13t-155.5 13 t-150.5 53t-132.5 102.5t-91 171.5t-35.5 250zM373 1649q0 51 47 71l264 113l264 -113q47 -20 47 -71q0 -33 -20.5 -55.5t-52.5 -22.5q-23 0 -45 10l-193 76l-192 -76q-23 -10 -46 -10q-33 0 -53 22.5t-20 55.5z" />
<glyph unicode="&#xdc;" horiz-adv-x="1368" d="M119 578v796q0 45 24.5 70.5t65.5 25.5t65.5 -25.5t24.5 -70.5v-866q0 -170 105.5 -267.5t279.5 -97.5t279.5 97.5t105.5 267.5v866q0 45 24.5 70.5t65.5 25.5t65.5 -25.5t24.5 -70.5v-796q0 -141 -35.5 -250t-91 -171.5t-132.5 -102.5t-150.5 -53t-155.5 -13t-155.5 13 t-150.5 53t-132.5 102.5t-91 171.5t-35.5 250zM383 1675q0 45 31.5 78t79 33t79 -33t31.5 -78t-31.5 -77.5t-79 -32.5t-79 32.5t-31.5 77.5zM764 1675q0 45 31.5 78t79 33t79 -33t31.5 -78t-31.5 -77.5t-79 -32.5t-79 32.5t-31.5 77.5z" />
<glyph unicode="&#xdd;" horiz-adv-x="1024" d="M2 1397q0 33 23.5 53t58.5 20q55 0 90 -57l338 -551l338 551q35 57 90 57q35 0 58.5 -20t23.5 -53q0 -31 -29 -76l-391 -637v-600q0 -45 -24.5 -70.5t-65.5 -25.5t-65.5 25.5t-24.5 70.5v600l-391 637q-29 45 -29 76zM285 1657q0 47 71 76l236 96q45 18 70 18 q37 0 57 -28.5t20 -57.5q0 -47 -71 -75l-236 -97q-45 -18 -70 -18q-37 0 -57 28.5t-20 57.5z" />
<glyph unicode="&#xde;" horiz-adv-x="1062" d="M119 84v1290q0 45 24.5 70.5t65.5 25.5t65.5 -25.5t24.5 -70.5v-145h272q213 0 343 -132t130 -325q0 -190 -134 -321.5t-332 -131.5h-279v-235q0 -45 -24.5 -70.5t-65.5 -25.5t-65.5 25.5t-24.5 70.5zM299 1073v-598h266q131 0 215 85t84 212q0 121 -75.5 211t-231.5 90 h-258z" />
<glyph unicode="&#xdf;" horiz-adv-x="1138" d="M119 1153q0 199 107.5 313.5t285.5 114.5t293 -115.5t115 -257.5q0 -236 -158 -344q127 -33 200.5 -146.5t73.5 -258.5q0 -178 -111.5 -324.5t-293.5 -146.5q-119 0 -119 84q0 78 68 78q145 0 204.5 82.5t59.5 234.5q0 139 -69.5 216t-178.5 83q-92 6 -92 76 q0 41 18.5 57t73.5 33q31 10 51.5 21.5t44 38t35.5 75.5t12 121q0 102 -60.5 169.5t-162.5 67.5q-217 0 -217 -307v-1042q0 -45 -26.5 -66.5t-63.5 -21.5t-63.5 21.5t-26.5 66.5v1077z" />
<glyph unicode="&#xe0;" horiz-adv-x="1138" d="M72 544.5q0 229.5 129 393.5t350 164q164 0 297 -146h4v58q0 43 25.5 65.5t58.5 22.5q31 0 57.5 -22.5t26.5 -65.5v-938q0 -43 -26.5 -65.5t-57.5 -22.5q-33 0 -58.5 22.5t-25.5 65.5v76h-4q-115 -164 -297 -164q-221 0 -350 163.5t-129 393zM252 545q0 -160 73.5 -281 t225 -121t225.5 121t74 281t-74 280.5t-225.5 120.5t-225 -120.5t-73.5 -280.5zM342 1434q0 29 20.5 57.5t57.5 28.5q25 0 69 -19l236 -96q72 -29 72 -76q0 -29 -20.5 -57.5t-57.5 -28.5q-25 0 -70 19l-235 96q-72 29 -72 76z" />
<glyph unicode="&#xe1;" horiz-adv-x="1138" d="M72 544.5q0 229.5 129 393.5t350 164q164 0 297 -146h4v58q0 43 25.5 65.5t58.5 22.5q31 0 57.5 -22.5t26.5 -65.5v-938q0 -43 -26.5 -65.5t-57.5 -22.5q-33 0 -58.5 22.5t-25.5 65.5v76h-4q-115 -164 -297 -164q-221 0 -350 163.5t-129 393zM252 545q0 -160 73.5 -281 t225 -121t225.5 121t74 281t-74 280.5t-225.5 120.5t-225 -120.5t-73.5 -280.5zM342 1329q0 47 72 76l235 96q45 18 70 19q37 0 57.5 -29t20.5 -57q0 -47 -72 -76l-236 -96q-45 -18 -69 -19q-37 0 -57.5 28.5t-20.5 57.5z" />
<glyph unicode="&#xe2;" horiz-adv-x="1138" d="M72 544.5q0 229.5 129 393.5t350 164q164 0 297 -146h4v58q0 43 25.5 65.5t58.5 22.5q31 0 57.5 -22.5t26.5 -65.5v-938q0 -43 -26.5 -65.5t-57.5 -22.5q-33 0 -58.5 22.5t-25.5 65.5v76h-4q-115 -164 -297 -164q-221 0 -350 163.5t-129 393zM252 545q0 -160 73.5 -281 t225 -121t225.5 121t74 281t-74 280.5t-225.5 120.5t-225 -120.5t-73.5 -280.5zM258 1321q0 51 47 72l264 112l265 -112q47 -20 47 -72q0 -33 -20.5 -55.5t-53.5 -22.5q-23 0 -45 10l-193 76l-192 -76q-23 -10 -45 -10q-33 0 -53.5 22.5t-20.5 55.5z" />
<glyph unicode="&#xe3;" horiz-adv-x="1138" d="M72 544.5q0 229.5 129 393.5t350 164q164 0 297 -146h4v58q0 43 25.5 65.5t58.5 22.5q31 0 57.5 -22.5t26.5 -65.5v-938q0 -43 -26.5 -65.5t-57.5 -22.5q-33 0 -58.5 22.5t-25.5 65.5v76h-4q-115 -164 -297 -164q-221 0 -350 163.5t-129 393zM252 545q0 -160 73.5 -281 t225 -121t225.5 121t74 281t-74 280.5t-225.5 120.5t-225 -120.5t-73.5 -280.5zM264 1341q0 49 54.5 89t136.5 40q49 0 117.5 -20t107.5 -20q31 0 67.5 20t59.5 20q25 0 46 -24.5t21 -54.5q0 -49 -54 -89t-136 -40q-49 0 -117.5 20.5t-107.5 20.5q-31 0 -68 -20.5t-59 -20.5 q-25 0 -46.5 24t-21.5 55z" />
<glyph unicode="&#xe4;" horiz-adv-x="1138" d="M72 544.5q0 229.5 129 393.5t350 164q164 0 297 -146h4v58q0 43 25.5 65.5t58.5 22.5q31 0 57.5 -22.5t26.5 -65.5v-938q0 -43 -26.5 -65.5t-57.5 -22.5q-33 0 -58.5 22.5t-25.5 65.5v76h-4q-115 -164 -297 -164q-221 0 -350 163.5t-129 393zM252 545q0 -160 73.5 -281 t225 -121t225.5 121t74 281t-74 280.5t-225.5 120.5t-225 -120.5t-73.5 -280.5zM268 1348q0 45 32 77.5t79 32.5t78.5 -32.5t31.5 -77.5t-31.5 -78t-78.5 -33t-79 33t-32 78zM649 1348q0 45 32 77.5t79 32.5t78.5 -32.5t31.5 -77.5t-31.5 -78t-78.5 -33t-79 33t-32 78z" />
<glyph unicode="&#xe5;" horiz-adv-x="1138" d="M72 544.5q0 229.5 129 393.5t350 164q164 0 297 -146h4v58q0 43 25.5 65.5t58.5 22.5q31 0 57.5 -22.5t26.5 -65.5v-938q0 -43 -26.5 -65.5t-57.5 -22.5q-33 0 -58.5 22.5t-25.5 65.5v76h-4q-115 -164 -297 -164q-221 0 -350 163.5t-129 393zM252 545q0 -160 73.5 -281 t225 -121t225.5 121t74 281t-74 280.5t-225.5 120.5t-225 -120.5t-73.5 -280.5zM377 1388.5q0 79.5 56 136t136 56.5t136.5 -56.5t56.5 -136t-56.5 -136t-136.5 -56.5t-136 56.5t-56 136zM475 1388.5q0 -38.5 27.5 -66.5t66.5 -28t67 28t28 66.5t-28 66.5t-67 28t-66.5 -28 t-27.5 -66.5z" />
<glyph unicode="&#xe6;" horiz-adv-x="1820" d="M72 544.5q0 229.5 129 393.5t350 164q166 0 295 -146h4v58q0 43 25.5 65.5t58.5 22.5q31 0 57.5 -22.5t26.5 -65.5v-45h4q27 37 108.5 85t178.5 48q182 0 320 -148.5t138 -382.5q0 -49 -22.5 -72.5t-77.5 -23.5h-666q4 -133 93 -231q86 -96 231 -97h6q76 2 137.5 24 t93 48.5t63.5 48t54 23.5q27 0 46.5 -21.5t19.5 -61.5q0 -42 -57 -93q-59 -53 -155.5 -90t-189.5 -37q-217 0 -321 131h-4v-43q0 -43 -26.5 -65.5t-57.5 -22.5q-33 0 -58.5 22.5t-25.5 65.5v76h-4q-113 -164 -295 -164q-221 0 -350 163.5t-129 393zM252 545 q0 -160 73.5 -281t225 -121t225.5 121t74 281t-74 280.5t-225.5 120.5t-225 -120.5t-73.5 -280.5zM1014 610h573q0 131 -74.5 233.5t-214.5 102.5q-143 0 -213.5 -101.5t-70.5 -234.5z" />
<glyph unicode="&#xe7;" horiz-adv-x="909" d="M72 545q0 233 128 395t363 162q133 0 213 -40t80 -97q0 -29 -21.5 -52.5t-52.5 -23.5q-29 0 -90 28.5t-129 28.5q-154 0 -232.5 -122t-78.5 -279.5t79 -279.5t232 -122q72 0 134.5 31t82.5 31q70 0 70 -76q0 -53 -71.5 -95t-196.5 -44l-52 -76q31 6 43 6q63 0 102.5 -37 t39.5 -76q0 -90 -61.5 -133t-166.5 -43q-66 0 -107.5 19.5t-41.5 52.5q0 23 11 39t32 16q12 0 49 -8t57 -8q72 0 72 55q0 25 -19.5 31t-70.5 6q-23 0 -38 8t-19 16.5t-4 14.5q0 20 20 51l49 72q-197 29 -301 184.5t-104 364.5z" />
<glyph unicode="&#xe8;" horiz-adv-x="1064" d="M53 545q0 231 134.5 394t355.5 163q211 0 340 -160t129 -371q0 -49 -22.5 -72.5t-78.5 -23.5h-678q0 -143 87.5 -237.5t234.5 -94.5q82 0 148.5 22.5t100.5 51.5t66.5 51.5t53.5 22.5q27 0 46 -21.5t19 -58.5q0 -70 -141 -146.5t-295 -76.5q-246 0 -373 160.5t-127 396.5 zM233 610h598q0 131 -74.5 233.5t-213.5 102.5q-9 0 -18 1q-140 0 -211 -94q-75 -100 -81 -243zM305 1434q0 29 20.5 57.5t57.5 28.5q25 0 70 -19l235 -96q72 -29 72 -76q0 -29 -20.5 -57.5t-57.5 -28.5q-25 0 -70 19l-235 96q-72 29 -72 76z" />
<glyph unicode="&#xe9;" horiz-adv-x="1064" d="M53 545q0 231 134.5 394t355.5 163q211 0 340 -160t129 -371q0 -49 -22.5 -72.5t-78.5 -23.5h-678q0 -143 87.5 -237.5t234.5 -94.5q82 0 148.5 22.5t100.5 51.5t66.5 51.5t53.5 22.5q27 0 46 -21.5t19 -58.5q0 -70 -141 -146.5t-295 -76.5q-246 0 -373 160.5t-127 396.5 zM233 610h598q0 131 -74.5 233.5t-213.5 102.5q-9 0 -18 1q-140 0 -211 -94q-75 -100 -81 -243zM305 1329q0 47 72 76l235 96q45 18 70 19q37 0 57.5 -29t20.5 -57q0 -47 -72 -76l-235 -96q-45 -18 -70 -19q-37 0 -57.5 28.5t-20.5 57.5z" />
<glyph unicode="&#xea;" horiz-adv-x="1064" d="M53 545q0 231 134.5 394t355.5 163q211 0 340 -160t129 -371q0 -49 -22.5 -72.5t-78.5 -23.5h-678q0 -143 87.5 -237.5t234.5 -94.5q82 0 148.5 22.5t100.5 51.5t66.5 51.5t53.5 22.5q27 0 46 -21.5t19 -58.5q0 -70 -141 -146.5t-295 -76.5q-246 0 -373 160.5t-127 396.5 zM221 1321q0 51 47 72l264 112l265 -112q47 -20 47 -72q0 -33 -20.5 -55.5t-53.5 -22.5q-23 0 -45 10l-193 76l-192 -76q-23 -10 -45 -10q-33 0 -53.5 22.5t-20.5 55.5zM233 610h598q0 131 -74.5 233.5t-213.5 102.5q-9 0 -18 1q-140 0 -211 -94q-75 -100 -81 -243z" />
<glyph unicode="&#xeb;" horiz-adv-x="1064" d="M53 545q0 231 134.5 394t355.5 163q211 0 340 -160t129 -371q0 -49 -22.5 -72.5t-78.5 -23.5h-678q0 -143 87.5 -237.5t234.5 -94.5q82 0 148.5 22.5t100.5 51.5t66.5 51.5t53.5 22.5q27 0 46 -21.5t19 -58.5q0 -70 -141 -146.5t-295 -76.5q-246 0 -373 160.5t-127 396.5 zM231 1348q0 45 32 77.5t79 32.5t79 -32.5t32 -77.5t-32 -78t-79 -33t-79 33t-32 78zM233 610h598q0 131 -74.5 233.5t-213.5 102.5q-9 0 -18 1q-140 0 -211 -94q-75 -100 -81 -243zM612 1348q0 45 32 77.5t79 32.5t79 -32.5t32 -77.5t-32 -78t-79 -33t-79 33t-32 78z" />
<glyph unicode="&#xec;" d="M-18 1434q0 29 20.5 57.5t56.5 28.5q25 0 70 -19l236 -96q72 -29 71 -76q0 -29 -20.5 -57.5t-57.5 -28.5q-25 0 -69 19l-236 96q-71 29 -71 76zM119 84v922q0 45 24.5 70.5t65.5 25.5t65.5 -25.5t24.5 -70.5v-922q0 -45 -24.5 -70.5t-65.5 -25.5t-65.5 25.5t-24.5 70.5z " />
<glyph unicode="&#xed;" d="M-18 1329q0 47 71 76l236 96q45 18 69 19q37 0 57.5 -29t20.5 -57q0 -47 -71 -76l-236 -96q-45 -18 -70 -19q-37 0 -57 28.5t-20 57.5zM119 84v922q0 45 24.5 70.5t65.5 25.5t65.5 -25.5t24.5 -70.5v-922q0 -45 -24.5 -70.5t-65.5 -25.5t-65.5 25.5t-24.5 70.5z" />
<glyph unicode="&#xee;" d="M-102 1321q0 51 47 72l264 112l264 -112q47 -20 47 -72q0 -33 -20.5 -55.5t-53.5 -22.5q-23 0 -45 10l-192 76l-193 -76q-23 -10 -45 -10q-33 0 -53 22.5t-20 55.5zM119 84v922q0 45 24.5 70.5t65.5 25.5t65.5 -25.5t24.5 -70.5v-922q0 -45 -24.5 -70.5t-65.5 -25.5 t-65.5 25.5t-24.5 70.5z" />
<glyph unicode="&#xef;" d="M-92 1348q0 45 31.5 77.5t79 32.5t79 -32.5t31.5 -77.5t-31.5 -78t-79 -33t-79 33t-31.5 78zM119 84v922q0 45 24.5 70.5t65.5 25.5t65.5 -25.5t24.5 -70.5v-922q0 -45 -24.5 -70.5t-65.5 -25.5t-65.5 25.5t-24.5 70.5zM289 1348q0 45 31.5 77.5t78.5 32.5t79 -32.5 t32 -77.5t-32 -78t-79 -33t-78.5 33t-31.5 78z" />
<glyph unicode="&#xf0;" horiz-adv-x="1101" d="M72 537q0 223 127 388t340 165q74 0 144.5 -34t113.5 -89l4 4q-66 178 -248 329l-178 -86q-37 -18 -60 -18q-18 0 -33.5 15.5t-15.5 39.5q0 31 35 47l158 76q-35 27 -87.5 49.5t-79 41t-26.5 53.5q0 29 21.5 46t54.5 17q47 0 128 -37t148 -88l189 94q37 18 59 19 q49 0 49 -49q0 -37 -43 -60l-159 -78q317 -285 317 -770q0 -285 -124 -454.5t-367 -169.5q-213 0 -340 165t-127 384zM252 536.5q0 -155.5 77 -274.5t222 -119t222 119t77 274.5t-77 274.5t-222 119t-222 -119t-77 -274.5z" />
<glyph unicode="&#xf1;" horiz-adv-x="1101" d="M119 84v922q0 45 24.5 70.5t65.5 25.5t65.5 -25.5t24.5 -70.5v-43l4 -5q113 143 301 144q68 0 131.5 -22.5t120.5 -68.5t92 -129t35 -194v-604q0 -45 -24.5 -70.5t-65.5 -25.5t-65.5 25.5t-24.5 70.5v594q0 133 -76 200.5t-176 67.5t-176 -67.5t-76 -200.5v-594 q0 -45 -24.5 -70.5t-65.5 -25.5t-65.5 25.5t-24.5 70.5zM246 1341q0 49 54 89t136 40q49 0 118 -20t108 -20q31 0 67.5 20t58.5 20q25 0 46.5 -24.5t21.5 -54.5q0 -49 -54 -89t-136 -40q-49 0 -118 20.5t-108 20.5q-31 0 -67.5 -20.5t-59.5 -20.5q-25 0 -46 24t-21 55z" />
<glyph unicode="&#xf2;" horiz-adv-x="1101" d="M72 544.5q0 229.5 129 393.5t350 164t350 -164t129 -393.5t-129 -393t-350 -163.5t-350 163.5t-129 393zM252 545q0 -160 73.5 -281t225 -121t225.5 121t74 281t-74 280.5t-225.5 120.5t-225 -120.5t-73.5 -280.5zM324 1434q0 29 20.5 57.5t56.5 28.5q25 0 70 -19 l236 -96q72 -29 71 -76q0 -29 -20.5 -57.5t-57.5 -28.5q-25 0 -69 19l-236 96q-71 29 -71 76z" />
<glyph unicode="&#xf3;" horiz-adv-x="1101" d="M72 544.5q0 229.5 129 393.5t350 164t350 -164t129 -393.5t-129 -393t-350 -163.5t-350 163.5t-129 393zM252 545q0 -160 73.5 -281t225 -121t225.5 121t74 281t-74 280.5t-225.5 120.5t-225 -120.5t-73.5 -280.5zM324 1329q0 47 71 76l236 96q45 18 69 19q37 0 57.5 -29 t20.5 -57q0 -47 -71 -76l-236 -96q-45 -18 -70 -19q-37 0 -57 28.5t-20 57.5z" />
<glyph unicode="&#xf4;" horiz-adv-x="1101" d="M72 544.5q0 229.5 129 393.5t350 164t350 -164t129 -393.5t-129 -393t-350 -163.5t-350 163.5t-129 393zM240 1321q0 51 47 72l264 112l264 -112q47 -20 47 -72q0 -33 -20.5 -55.5t-53.5 -22.5q-23 0 -45 10l-192 76l-193 -76q-23 -10 -45 -10q-33 0 -53 22.5t-20 55.5z M252 545q0 -160 73.5 -281t225 -121t225.5 121t74 281t-74 280.5t-225.5 120.5t-225 -120.5t-73.5 -280.5z" />
<glyph unicode="&#xf5;" horiz-adv-x="1101" d="M72 544.5q0 229.5 129 393.5t350 164t350 -164t129 -393.5t-129 -393t-350 -163.5t-350 163.5t-129 393zM246 1341q0 49 54 89t136 40q49 0 118 -20t108 -20q31 0 67.5 20t58.5 20q25 0 46.5 -24.5t21.5 -54.5q0 -49 -54 -89t-136 -40q-49 0 -118 20.5t-108 20.5 q-31 0 -67.5 -20.5t-59.5 -20.5q-25 0 -46 24t-21 55zM252 545q0 -160 73.5 -281t225 -121t225.5 121t74 281t-74 280.5t-225.5 120.5t-225 -120.5t-73.5 -280.5z" />
<glyph unicode="&#xf6;" horiz-adv-x="1101" d="M72 544.5q0 229.5 129 393.5t350 164t350 -164t129 -393.5t-129 -393t-350 -163.5t-350 163.5t-129 393zM250 1348q0 45 32.5 77.5t78 32.5t78 -32.5t32.5 -77.5t-32.5 -78t-78 -33t-78 33t-32.5 78zM252 545q0 -160 73.5 -281t225 -121t225.5 121t74 281t-74 280.5 t-225.5 120.5t-225 -120.5t-73.5 -280.5zM631 1348q0 45 32.5 77.5t77.5 32.5t78 -32.5t33 -77.5t-33 -78t-78 -33t-77.5 33t-32.5 78z" />
<glyph unicode="&#xf7;" horiz-adv-x="1228" d="M96 518q0 84 88 84h860q88 0 88.5 -84t-88.5 -84h-860q-88 0 -88 84zM467 94.5q0 61.5 43 104.5t104.5 43t104.5 -43t43 -104.5t-43 -104.5t-104.5 -43t-104.5 43t-43 104.5zM467 942.5q0 61.5 43 104.5t104.5 43t104.5 -43t43 -104.5t-43 -104.5t-104.5 -43t-104.5 43 t-43 104.5z" />
<glyph unicode="&#xf8;" horiz-adv-x="1101" d="M47 8q0 29 37 72l92 110q-104 141 -104 355q0 229 129 393t350 164q172 0 293 -105l84 103q31 39 63 39q27 0 45.5 -16.5t18.5 -41.5q0 -29 -29 -63l-98 -117q102 -156 102 -356q0 -229 -129 -393t-350 -164q-172 0 -291 106l-86 -104q-29 -39 -65 -39q-25 0 -43.5 17 t-18.5 40zM252 545q0 -119 41 -213l446 538q-72 76 -188 76q-152 0 -225.5 -120.5t-73.5 -280.5zM362 219q72 -76 189 -76q152 0 225.5 121t73.5 281q0 123 -41 213z" />
<glyph unicode="&#xf9;" horiz-adv-x="1101" d="M119 422v584q0 45 24.5 70.5t65.5 25.5t65.5 -25.5t24.5 -70.5v-578q0 -285 252 -285t252 285v578q0 45 24.5 70.5t65.5 25.5t65.5 -25.5t24.5 -70.5v-584q0 -223 -124 -328.5t-308 -105.5t-308 105.5t-124 328.5zM324 1434q0 29 20.5 57.5t56.5 28.5q25 0 70 -19 l236 -96q72 -29 71 -76q0 -29 -20.5 -57.5t-57.5 -28.5q-25 0 -69 19l-236 96q-71 29 -71 76z" />
<glyph unicode="&#xfa;" horiz-adv-x="1101" d="M119 422v584q0 45 24.5 70.5t65.5 25.5t65.5 -25.5t24.5 -70.5v-578q0 -285 252 -285t252 285v578q0 45 24.5 70.5t65.5 25.5t65.5 -25.5t24.5 -70.5v-584q0 -223 -124 -328.5t-308 -105.5t-308 105.5t-124 328.5zM324 1329q0 47 71 76l236 96q45 18 69 19q37 0 57.5 -29 t20.5 -57q0 -47 -71 -76l-236 -96q-45 -18 -70 -19q-37 0 -57 28.5t-20 57.5z" />
<glyph unicode="&#xfb;" horiz-adv-x="1101" d="M119 422v584q0 45 24.5 70.5t65.5 25.5t65.5 -25.5t24.5 -70.5v-578q0 -285 252 -285t252 285v578q0 45 24.5 70.5t65.5 25.5t65.5 -25.5t24.5 -70.5v-584q0 -223 -124 -328.5t-308 -105.5t-308 105.5t-124 328.5zM240 1321q0 51 47 72l264 112l264 -112q47 -20 47 -72 q0 -33 -20.5 -55.5t-53.5 -22.5q-23 0 -45 10l-192 76l-193 -76q-23 -10 -45 -10q-33 0 -53 22.5t-20 55.5z" />
<glyph unicode="&#xfc;" horiz-adv-x="1101" d="M119 422v584q0 45 24.5 70.5t65.5 25.5t65.5 -25.5t24.5 -70.5v-578q0 -285 252 -285t252 285v578q0 45 24.5 70.5t65.5 25.5t65.5 -25.5t24.5 -70.5v-584q0 -223 -124 -328.5t-308 -105.5t-308 105.5t-124 328.5zM250 1348q0 45 32.5 77.5t78 32.5t78 -32.5t32.5 -77.5 t-32.5 -78t-78 -33t-78 33t-32.5 78zM631 1348q0 45 32.5 77.5t77.5 32.5t78 -32.5t33 -77.5t-33 -78t-78 -33t-77.5 33t-32.5 78z" />
<glyph unicode="&#xfd;" horiz-adv-x="909" d="M35 1026q0 33 24.5 54.5t57.5 21.5q70 0 90 -68l250 -747h4l246 747q20 68 86 68q33 0 57 -21.5t24 -54.5q0 -27 -24 -100l-455 -1301q-25 -68 -88 -67q-33 0 -57.5 21.5t-24.5 53.5q0 29 27 101l115 305l-308 887q-24 73 -24 100zM227 1329q0 47 72 76l236 96 q45 18 69 19q37 0 57.5 -29t20.5 -57q0 -47 -72 -76l-235 -96q-45 -18 -70 -19q-37 0 -57.5 28.5t-20.5 57.5z" />
<glyph unicode="&#xfe;" horiz-adv-x="1138" d="M127 -346v1831q0 45 24.5 70.5t65.5 25.5t65.5 -25.5t24.5 -70.5v-533h4q78 150 291 150t339 -164t126 -393.5t-126 -393t-339 -163.5q-98 0 -174 44t-117 103h-4v-481q0 -45 -24.5 -70.5t-65.5 -25.5t-65.5 25.5t-24.5 70.5zM289 545q0 -160 73.5 -281t225 -121 t225.5 121t74 281t-74 280.5t-225.5 120.5t-225 -120.5t-73.5 -280.5z" />
<glyph unicode="&#xff;" horiz-adv-x="909" d="M35 1026q0 33 24.5 54.5t57.5 21.5q70 0 90 -68l250 -747h4l246 747q20 68 86 68q33 0 57 -21.5t24 -54.5q0 -27 -24 -100l-455 -1301q-25 -68 -88 -67q-33 0 -57.5 21.5t-24.5 53.5q0 29 27 101l115 305l-308 887q-24 73 -24 100zM154 1348q0 45 31.5 77.5t78.5 32.5 t79 -32.5t32 -77.5t-32 -78t-79 -33t-78.5 33t-31.5 78zM535 1348q0 45 31.5 77.5t78.5 32.5t79 -32.5t32 -77.5t-32 -78t-79 -33t-78.5 33t-31.5 78z" />
<glyph unicode="&#x152;" horiz-adv-x="1896" d="M63 729.5q0 194.5 71 360t220.5 273t347.5 107.5q248 0 433 -204v94q0 98 96 98h493q88 0 88 -84t-88 -84h-409v-477h395q88 0 88 -84t-88 -84h-395v-477h430q88 0 88 -84t-88 -84h-514q-96 0 -96 98v115h-5q-70 -100 -184.5 -162.5t-243.5 -62.5q-199 0 -348 107.5 t-220 273.5t-71 360.5zM256 729.5q0 -149.5 41 -276.5t145.5 -218.5t260 -91.5t260 91.5t145.5 218.5t41 276.5t-41 276.5t-145.5 218t-260 91t-260 -91t-145.5 -218t-41 -276.5z" />
<glyph unicode="&#x153;" horiz-adv-x="1857" d="M72 544.5q0 229.5 128 393.5t345 164q248 0 395 -213q57 98 157.5 155.5t227.5 57.5q219 0 349 -160t130 -371q0 -49 -22.5 -72.5t-77.5 -23.5h-678q0 -145 89 -237q87 -90 242 -91h7q76 2 138.5 24t94 48.5t64.5 48t55 23.5q27 0 46.5 -21.5t19.5 -61.5q0 -42 -60 -92 q-61 -52 -163.5 -90t-202.5 -38q-293 0 -416 213q-154 -213 -395 -213q-217 0 -345 163.5t-128 393zM252 544.5q0 -100.5 26.5 -187.5t97 -150.5t173 -63.5t173.5 63.5t97.5 150.5t26.5 187.5t-26.5 187.5t-97.5 150.5t-173.5 63.5t-173 -63.5t-97 -150.5t-26.5 -187.5z M1026 610h598q0 131 -77 233.5t-222 102.5t-222 -102.5t-77 -233.5z" />
<glyph unicode="&#x178;" horiz-adv-x="1024" d="M2 1397q0 33 23.5 53t58.5 20q55 0 90 -57l338 -551l338 551q35 57 90 57q35 0 58.5 -20t23.5 -53q0 -31 -29 -76l-391 -637v-600q0 -45 -24.5 -70.5t-65.5 -25.5t-65.5 25.5t-24.5 70.5v600l-391 637q-29 45 -29 76zM211 1675q0 45 31.5 78t79 33t79 -33t31.5 -78 t-31.5 -77.5t-79 -32.5t-79 32.5t-31.5 77.5zM592 1675q0 45 31.5 78t79 33t79 -33t31.5 -78t-31.5 -77.5t-79 -32.5t-79 32.5t-31.5 77.5z" />
<glyph unicode="&#x2c6;" d="M-102 1321q0 51 47 72l264 112l264 -112q47 -20 47 -72q0 -33 -20.5 -55.5t-53.5 -22.5q-23 0 -45 10l-192 76l-193 -76q-23 -10 -45 -10q-33 0 -53 22.5t-20 55.5z" />
<glyph unicode="&#x2dc;" d="M-96 1341q0 49 54 89t136 40q49 0 118 -20t107 -20q31 0 68 20t59 20q25 0 46.5 -24.5t21.5 -54.5q0 -49 -54 -89t-136 -40q-49 0 -118 20.5t-108 20.5q-31 0 -67.5 -20.5t-59.5 -20.5q-25 0 -46 24t-21 55z" />
<glyph unicode="&#x2013;" horiz-adv-x="1024" d="M0 549q0 33 22.5 55.5t55.5 22.5h868q33 0 55.5 -22.5t22.5 -55.5t-22.5 -55.5t-55.5 -22.5h-868q-33 0 -55.5 22.5t-22.5 55.5z" />
<glyph unicode="&#x2014;" horiz-adv-x="2048" d="M-78 549q0 33 22.5 55.5t55.5 22.5h2048q33 0 55.5 -22.5t22.5 -55.5t-22.5 -55.5t-55.5 -22.5h-2048q-33 0 -55.5 22.5t-22.5 55.5z" />
<glyph unicode="&#x2018;" d="M51 1094q0 31 23 75l114 226q39 76 97 75q33 0 57.5 -22.5t24.5 -54.5q0 -31 -23 -76l-115 -225q-39 -76 -96 -76q-33 0 -57.5 22.5t-24.5 55.5z" />
<glyph unicode="&#x2019;" d="M51 1094q0 31 23 75l114 226q39 76 97 75q33 0 57.5 -22.5t24.5 -54.5q0 -31 -23 -76l-115 -225q-39 -76 -96 -76q-33 0 -57.5 22.5t-24.5 55.5z" />
<glyph unicode="&#x201a;" d="M51 -180q0 31 23 76l114 225q39 76 97 76q33 0 57.5 -22.5t24.5 -55.5q0 -31 -23 -76l-115 -225q-39 -76 -96 -76q-33 0 -57.5 22.5t-24.5 55.5z" />
<glyph unicode="&#x201c;" horiz-adv-x="684" d="M39 1094q0 31 22 75l115 226q39 76 96 75q33 0 57.5 -22.5t24.5 -54.5q0 -31 -22 -76l-115 -225q-39 -76 -96 -76q-33 0 -57.5 22.5t-24.5 55.5zM330 1094q0 31 22 75l115 226q39 76 96 75q33 0 57.5 -22.5t24.5 -54.5q0 -31 -22 -76l-115 -225q-39 -76 -96 -76 q-33 0 -57.5 22.5t-24.5 55.5z" />
<glyph unicode="&#x201d;" horiz-adv-x="684" d="M39 1094q0 31 22 75l115 226q39 76 96 75q33 0 57.5 -22.5t24.5 -54.5q0 -31 -22 -76l-115 -225q-39 -76 -96 -76q-33 0 -57.5 22.5t-24.5 55.5zM330 1094q0 31 22 75l115 226q39 76 96 75q33 0 57.5 -22.5t24.5 -54.5q0 -31 -22 -76l-115 -225q-39 -76 -96 -76 q-33 0 -57.5 22.5t-24.5 55.5z" />
<glyph unicode="&#x201e;" horiz-adv-x="684" d="M39 -180q0 31 22 76l115 225q39 76 96 76q33 0 57.5 -22.5t24.5 -55.5q0 -31 -22 -76l-115 -225q-39 -76 -96 -76q-33 0 -57.5 22.5t-24.5 55.5zM330 -180q0 31 22 76l115 225q39 76 96 76q33 0 57.5 -22.5t24.5 -55.5q0 -31 -22 -76l-115 -225q-39 -76 -96 -76 q-33 0 -57.5 22.5t-24.5 55.5z" />
<glyph unicode="&#x2022;" horiz-adv-x="1024" d="M147 729.5q0 151.5 106.5 258t258.5 106.5t258.5 -106.5t106.5 -258t-106.5 -258t-258.5 -106.5t-258.5 106.5t-106.5 258z" />
<glyph unicode="&#x2026;" horiz-adv-x="2048" d="M238 92q0 43 30.5 74t73.5 31t73.5 -31t30.5 -74t-30.5 -73.5t-73.5 -30.5t-73.5 30.5t-30.5 73.5zM920 92q0 43 30.5 74t73.5 31t73.5 -31t30.5 -74t-30.5 -73.5t-73.5 -30.5t-73.5 30.5t-30.5 73.5zM1602 92q0 43 30.5 74t73.5 31t73.5 -31t30.5 -74t-30.5 -73.5 t-73.5 -30.5t-73.5 30.5t-30.5 73.5z" />
<glyph unicode="&#x2039;" horiz-adv-x="530" d="M88 549l203 364q31 53 69 54q33 0 57.5 -18.5t24.5 -53.5q0 -25 -22 -64l-170 -282l170 -283q23 -39 22 -63q0 -35 -24.5 -53.5t-57.5 -18.5q-39 0 -69 53z" />
<glyph unicode="&#x203a;" horiz-adv-x="530" d="M88 203q0 25 23 63l170 283l-170 282q-23 39 -23 64q0 35 24.5 53.5t57.5 18.5q39 0 70 -54l202 -364l-202 -365q-31 -53 -70 -53q-33 0 -57.5 18.5t-24.5 53.5z" />
<glyph unicode="&#x20ac;" horiz-adv-x="1097" d="M49 520l45 137h90q-2 18 -2 76q0 51 2 72h-135l45 137h103q70 526 501 526q201 0 312 -84v-176q-102 98 -289 99q-154 0 -240 -97.5t-104 -267.5h553l-47 -137h-523q-2 -20 -2 -72q0 -57 2 -76h471l-47 -137h-407q23 -182 109.5 -277.5t236.5 -95.5q176 0 287 99v-178 q-94 -78 -312 -78q-432 0 -499 530h-150z" />
<glyph unicode="&#x2122;" horiz-adv-x="2027" d="M119 1390.5q0 67.5 65 67.5h557q66 0 66 -67.5t-66 -67.5h-194v-625q0 -88 -84 -88t-84 88v625h-195q-65 0 -65 67.5zM971 1333q0 137 129 137q104 0 137 -79l205 -535l200 535q33 80 138 79q129 0 129 -137v-645q0 -33 -22.5 -55.5t-55.5 -22.5t-55.5 22.5t-22.5 55.5 v590h-4l-221 -592q-29 -76 -88.5 -76t-87.5 76l-222 592h-4v-590q0 -33 -22.5 -55.5t-55 -22.5t-55 22.5t-22.5 55.5v645z" />
<glyph unicode="&#xe000;" horiz-adv-x="1100" d="M0 1100h1100v-1100h-1100v1100z" />
<glyph unicode="&#xfb01;" horiz-adv-x="948" d="M12 1012q0 78 90 78h74v256q0 113 67.5 174t172.5 61h55q39 0 70.5 -21.5t31.5 -56.5q0 -78 -98 -78h-45q-74 0 -74 -71v-264h113q90 0 90 -78t-90 -78h-113v-850q0 -45 -24.5 -70.5t-65.5 -25.5t-65.5 25.5t-24.5 70.5v850h-74q-90 0 -90 78zM629 1360q0 45 31.5 77.5 t78.5 32.5t79 -32.5t32 -77.5t-32 -78t-79 -33t-78.5 33t-31.5 78zM649 84v922q0 45 24.5 70.5t65.5 25.5t65.5 -25.5t24.5 -70.5v-922q0 -45 -24.5 -70.5t-65.5 -25.5t-65.5 25.5t-24.5 70.5z" />
<glyph unicode="&#xfb02;" horiz-adv-x="948" d="M12 1012q0 78 90 78h74v256q0 113 67.5 174t172.5 61h55q39 0 70.5 -21.5t31.5 -56.5q0 -78 -98 -78h-45q-74 0 -74 -71v-264h113q90 0 90 -78t-90 -78h-113v-850q0 -45 -24.5 -70.5t-65.5 -25.5t-65.5 25.5t-24.5 70.5v850h-74q-90 0 -90 78zM649 84v1401 q0 45 24.5 70.5t65.5 25.5t65.5 -25.5t24.5 -70.5v-1401q0 -45 -24.5 -70.5t-65.5 -25.5t-65.5 25.5t-24.5 70.5z" />
<glyph unicode="&#xfb03;" horiz-adv-x="1478" d="M12 1012q0 78 90 78h74v256q0 113 67.5 174t172.5 61h55q39 0 70.5 -21.5t31.5 -56.5q0 -78 -98 -78h-45q-74 0 -74 -71v-264h113q90 0 90 -78t-90 -78h-113v-850q0 -45 -24.5 -70.5t-65.5 -25.5t-65.5 25.5t-24.5 70.5v850h-74q-90 0 -90 78zM543 1012q0 78 90 78h74 v256q0 113 67.5 174t171.5 61h55q39 0 71 -21.5t32 -56.5q0 -78 -98 -78h-45q-74 0 -74 -71v-264h112q90 0 90.5 -78t-90.5 -78h-112v-850q0 -45 -24.5 -70.5t-65.5 -25.5t-65.5 25.5t-24.5 70.5v850h-74q-90 0 -90 78zM1159 1360q0 45 33 77.5t78 32.5t77.5 -32.5 t32.5 -77.5t-32.5 -78t-77.5 -33t-78 33t-33 78zM1180 84v922q0 45 24.5 70.5t65.5 25.5t65.5 -25.5t24.5 -70.5v-922q0 -45 -24.5 -70.5t-65.5 -25.5t-65.5 25.5t-24.5 70.5z" />
<glyph unicode="&#xfb04;" horiz-adv-x="1478" d="M12 1012q0 78 90 78h74v256q0 113 67.5 174t172.5 61h55q39 0 70.5 -21.5t31.5 -56.5q0 -78 -98 -78h-45q-74 0 -74 -71v-264h113q90 0 90 -78t-90 -78h-113v-850q0 -45 -24.5 -70.5t-65.5 -25.5t-65.5 25.5t-24.5 70.5v850h-74q-90 0 -90 78zM543 1012q0 78 90 78h74 v256q0 113 67.5 174t171.5 61h55q39 0 71 -21.5t32 -56.5q0 -78 -98 -78h-45q-74 0 -74 -71v-264h112q90 0 90.5 -78t-90.5 -78h-112v-850q0 -45 -24.5 -70.5t-65.5 -25.5t-65.5 25.5t-24.5 70.5v850h-74q-90 0 -90 78zM1180 84v1401q0 45 24.5 70.5t65.5 25.5t65.5 -25.5 t24.5 -70.5v-1401q0 -45 -24.5 -70.5t-65.5 -25.5t-65.5 25.5t-24.5 70.5z" />
</font>
</defs>
</svg>
